<svg xmlns="http://www.w3.org/2000/svg" viewBox="0 0 256 144" preserveAspectRatio="xMidYMid slice"><path fill="#0566b0" stroke-width=".9" d="M0 0h256v144H0z"/><path fill="#fff" fill-rule="evenodd" stroke-width=".6" d="M79.5 102.3s.4 1.8 1.5 1c1-.6 1.4-1.6 2.5-1.6 1 0 5.4-.8 6.4 0s1 0 1.6 0l2 .4c1.4 0 1-2.2 0-2.8-1.2-1-3-1.8-4.5-3l-.3-3 1-1.7v-5.3c0-.4-.3-1-.5-1.4 0-1.3 0-2.6-.2-4l-.5-.6v-1.5c.3-.6 1-1 1.4-1.6-.7-4-1-7-1-11 1-.4 1.3-.8 1.4-1.3 0-.6-.2-1.2-.5-2.6l-.4-22c.5-1 1.2-1.4 1.2-2 0-.5-.5-1-1.2-1.5 0-1.4.8-3.8 2-4 1 0 1.7-.6 1.7-1.3.8-1.7-1-1.8-1-1.8H86c-1.6 0-3-.2-4.6-.3-.8.2-1.5.2-2.2.2-1.8.6-1.4 1.6-.8 2 1 .6 1.6 1.2 2.6 1.2s2 .5 2.5 1.6c.4 17 .4 31.5.7 47 0 0-.2 1.4-.5 1.7-.3.4-.2 3.4-.2 3.4 1 1 1 1 0 2.4v9l-1 1.6s-3 1.7-3 3.3zM29 116.8c-1.6-.3-2-1-1.3-1.5 1.2-.3 2.2-.8 3-1.5.7-.8.3-2.5 1-4 1-11.7.2-23.4.3-35.3.8-1.6.8-3 .6-4.5-.6-.6-.4-3.2-.5-4.7 0-2.2.2-2 .8-4 .6-3-1.2-3-1-4.6 0-5.6.2-11.2 0-16.8 0-.6 1-.7 1-1.2.3-.6.3-1.3 0-2 0-.2-1 .2-1.2 0C30 35 28 34.2 27 32.2c-.2-.8.4-2.5 1-3 1.3-.5 3.6.2 5 0 .7-.2 1.2-.6 2-.7 5.7-.2 11.6-.8 17.3-.2 1 0 1.2 1.7 2 2 1.2.6 3 .5 3.7 1.5 3 3.3 3.3 7.6 3.3 12-.3 4-2.8 7.4-4.8 10.3-.7 1-2 2.2-2.4 3.4-.2 1.3 3.2.4 4 1.5.5 1-.7 2.4-.3 3.6.3 1 2.2 1.2 2.4 2.4.7 3-.6 6 0 9 0 .8 1.6 1 1.7 1.8 0 4.5.3 9 .2 13 0 1-1.2 1.4-1.3 2.3-.3 2 .5 4.6 0 6.7-.5 2.3-2.3 4-3 6-.6 2-.5 4.8-1.4 6-3.6.8-6 3.8-8.7 5.6-.7.7-2.3.2-3.2.6-.8.3-1 1-1.8 1-.7-.2-.4-.8-1-1.2-.3-.3-1-.3-1.2 0-2 1.4-.5 1-2.6 1-2-.3-6.2.3-8.8-.2zm12-8.5c.4-1 .8-2 1.3-2.8 0-3-.3-6-.4-9l1-1.8c.4-4.4 0-9.3 0-13.4-1.5-1.2-.8-1.2.3-2.6 0-1.3.4-2.4.4-3.8l-.4-3.5.6-1.7c0-2.3 0-5 .4-6.8 1.7 2 6.6 5.3 6.2 7.6-.5 2 1 2.6.6 4.6-.4 1.5-1 2.5-.8 3.4 0 .6.4 1.2 1 2 .6.6.8.5.4 1.3-.5 1.2-1 2-1 2.7 0 1 .4 1.4 1 3 0 4.7-1.3 8.6-1.6 12.7-.5 3.4-3.3 4.6-5.7 6.8-1.3.5-2.3.6-3.6 1zm3-53.7h1.8c1.2-1.3 1.8-3.3 3.3-4.2l2-.4c1-1.3 0-3.5 0-5.4.6-.4.6-1.7.2-2.2-.4-.5-.8-1 0-1.7.6-.6 1-1.8-.6-1.6-1.7.3-1.7-.4-2-1 0-.4-2-.3-3-.4-.8.2-1.6 0-1.6 1-.2 5.4 0 10.7 0 16zm53.2 43.8c0 .4-1 .4-1 1 0 .4 0 1.4.7 1.5 1.7 0 4-.6 5.8-.3.7 0 .7 1.3 1.3 1.6h2c.6-.3.4-1.2 1-1.5.5-.3 1.3-.5 2-.2.3 0 0 1 .2 1 3 0 5.8.3 8.7 0 .4 0 0-.8.3-1.2.6-.4 2 .3 2-.3.4-3.3-.3-7 0-10.5 0-1 1.2-1.7 1.4-2.8 0-.4.5-.4.5-.7.2-1.2 0-2.7-.2-4-.4-.3-1.6-.5-2-.3-.5.3 0 1.5-.4 2 0 .3-.7-.2-.8 0-.2.3 0 .7 0 1v.4c-.8.5-2-.5-2.7 0-.6.6.2 1.6-.4 2.3-3.4 1-4.5 4.8-6.3 6.4-2.8.5-5.3 2.8-7.5 3.5-.4 0-1-.7-.8-1 3.6-8.3 4.3-17 9-24 .3-.5 1.2-.3 1.4-.7.3-1.2-.4-2.5 0-3.7.2-1 1-1.7 2-2.2.4-.3 1.2 0 1.4-.4.5-1.3 0-2.7.4-4 .2-1 .8-1.6 1.3-2.5.2-2.6 2-4.2 3-6.5.3-1.3 0-2 0-3.4 0-.4.7-.6.7-1 .2-4.6.4-9.2 0-13.8 0-.3-.7-.3-.7-.7 0-1.4.2-2.6 0-4 0 0 .2-.3 0-.3-7.3 0-14.2-.5-21 0-.3 0-.8 0-1 .4-.4.3-.5 1-.5 1.5v6.6c0 .4 1 .2 1 .6.5 1.2.5 2.5.4 3.8 0 .4-.5 1-.5 1.3 0 1.4.3 2.4.5 3.8.2.6.6 1 .7 1.5.2.7-.4 2 .3 2h1.3c.5-.2-.2-1 0-1.6.2-.4.8-.4 1-.8.2-2-.4-4.4 0-6.4 0-.6.4-1.2 1-1.6.4-.2 1.2.5 1.5 0 .5-.5 0-1.2.3-2 1-1.5 2.5-3.7 4.2-4 2.2-.2 4.7 0 7.6 0 .3 0 .4.3.4.6 0 1.3.3 3 0 4-1.2 2.7-3.5 4.4-5 6.6-.7 1 .4 2.5 0 3.8-.6 2.6-3.2 4-4.5 5.8-1.4 2.2-2.2 4.5-2.6 6.8 0 1 .3 2 0 2.7-.4.6-1 .5-1.5 1-.6.7-1 1.6-1.2 2.4-.2 2.4-2.2 3.7-3.2 5.7-.8 4-2.3 8.2-2.3 12 0 .6.5 1 .8 1.4 0 .4.6.8.4 1.2 0 .5-1 .5-1.2 1 0 .6 0 1 .5 1.5.4.3 1 .2 1.3.6.3.5.3 1 0 1.6 0 .3-.8.2-1 .6-.2 1.8.2 3 0 4.8zm105.6 17.3c-.2-.8.4-1 .8-1.3 1-1.2 1.4-2.4 2-4 0-1.6-1-3.4-1.2-4.5 0-.6 1.2-.7 2-1 .6-.3 1-.7 1-1 .3-.6-.3-.5-.6-1-.4-.8-.5-1.8-.7-2.3-.4-1-1.3-2-1.3-3 0-4.5 1.4-9.5 1.2-13-.4-2.2-2.2-3.6-2.8-5.7-.4-1.5 0-3.4-.3-5 0-.3-1-.7-1-1v-6.6c0-.4-.4-.5-.5-1v-6.2c0-.4-.4-.7-.4-1 .2-5-.3-10.2 0-14.8 0-.4 1-.4 1-.8 0-2-.3-2.7-.3-4.7 0-.3.5-.8.5-1 0-1.7.3-3.3 0-4.7-.4-1-1-1.3-2-2l-2.3-2c-1-.6-1.6-1.2-2.3-2.2-.4-.5.3-.5 1-.5 1 0 2 0 3 .2.3 0 1 .6 1.2.7.6.2 1 0 1.8 0 2.2.5 4 2.7 5.6 3.5l3.2.8c.7.2 1.2-.3 2 0 .8 0 2.4.5 3.3.8.5.2.8.8 1.4 1 2.7.5 2.2-.4 4.4 1.7.6.7 1.7 1.2 2.2 2 .6 1 .7 2.3 1 3.5.5 1 1.2 1.7 1.4 2.7.5 2.6 0 5.3.3 8 0 .7 1 1.6 1 2.4.3 3 .4 6 0 9 0 1.2-1 1.6-1.2 2.6-.2 1.8.3 3.6.2 5.3-.2 1.6-1.3 2.7-2.3 3.6-2 6.5 0 14-.6 20 0 .6-.7 1-.8 1.8-.3 2 0 4-.3 6.2 0 .4-.5.8-.6 1 0 2-.2 4.7-1 7-1.4 3-4.2 4-7 4.8-1 .2-2 0-2.7.5-.5.2-.2.2-.7.5-.2.2-.7.2-1 0-.2-.3 0-.4-.5-.6-.5-.4-1.3-.3-2 0-.4 0-.2.5-.7.6-1 .2-2 .4-3.2.4-.5 0-1 .2-1.2-.3zm9-69.4c1.5 0 1.7-.2 3 .5 1.2.6 1.4 1 2.2 2.3l1.2 1.2c1.6 1.6 2.4 3.8 3 5.8 0 2.2.6 6-.5 8-.6 1.2-.8 2-1 2.8 0 2.4-.8 2-1.5 3.8-.2.5-.2 1-.2 2.3 0 4 0 8.2-.2 12.4 0 2.6-.5 4-1.6 6.4-.6 1.2-1 2-1 3.2 0 2.6-1 4.3-2 6.4-.5 1-1 1.4-1.2 1.3-.3 0-.5-.8-.5-1.8 0-11 .2-21.6.3-31.6 0-1 0-1.4-.8-2.3 0-1.6-.4-2.4-1-4-.7-1.4-.6-2.3-.6-3.8 0-3.8 0-7.6-.2-11.3 0-2.4.5-1.6 2.7-1.7zM123.4 111c-.4-2 0-3.8 0-5.3 0-.4.8 0 1-.3.3-.5.5-1 .3-1.7 0-.3-.3.2-.5 0 0-.5 0-1 .3-1.5.4-.5 1.2-.4 1.5-1 .4-.8-.3-1.8 0-2.7 0-.3.8.3 1 0 .2-1.3-.2-2.8 0-4 0-.5.3-.6.4-1 .2-1.5.2-3 0-4.4-.2-1-1-1.5-1-2.4-1.2-7 0-12.8 2.7-19.3.5-1.5.8-1 1.4-2.6 0-.4.3-1 0-1.5 0-.5-.8-1-.7-1.6 0-.8 1-.7 1.3-1.5.3-.8-.3-2 0-3 .4-1 1.8-1.8 2-3 0-3.5 1.4-7 2.8-9.6.7-1.2 1.8-2.2 2.3-3.5.5-1.3.5-3 .7-4-.8-1-2.6.4-3.7 0-.6-.2-.6-1.2-1.2-1.4-1.3 0-2.5 0-3.4.6-1.2 1-1.2 2-1.6 3.3-.7 2.2-.2 4.6-1 6.6-.4 1-1.8 1.2-2.5 1.7-.4.3-.5.6-1 .6s-1 0-1-.6c-.2-1 0-2 0-2.8 0-1-.4-1.6-.2-2.4 0-.3 1-.2 1-.6.4-4.2 0-8.5 0-12.6 0-1.4.4-1.2 1.8-1.2 7.8 0 16-.3 23.2 0 .7 0 1.6.2 1.7 1-.2 2.4-1.7 4.2-3 6-.4 1 0 2.5-.4 3.7-.3.7-1.7.8-2 1.5-.4 1 .3 2.3 0 3.4-.3.4-1.4 0-1.6.6-.6 1.8-.3 3.8-.7 5.6-.3 1-1 1.7-1.2 2.7-.4 2.7.2 5.6 0 8.4 0 .6-.7 1-1 1.6-.3 1.4-.5 3-1 4.2-.2.6-1 1-1 1.5-.4 1 .2 2 0 2.7-.6 1-2 1.5-2.4 2.6-.6 3.2.4 6.5 0 9.7-.3 1.4-1.5 2.6-1.8 4-.3 1.8.2 4-.2 5.8-.5 1.7-1.7 3.2-2.4 5 0 1.6-2 3-1 4.3 1.3.2 3.5.5 5-.2.7-.3-.2-1.8.5-2.2 3-2.3 6.8-2.8 9.8-5 .5-.4.6-1.4 1.2-1.6.4-.2.5.8 1 .8 1.3.3 2.5-.3 3.8 0 .6.2.5 1 .7 1.5 0 .6.3 1 0 1.5 0 .3-.7 0-.8.2-.2.6 0 1.3 0 2 0 .4.5.7.6 1.2.2 2.4.3 5 0 7.4 0 .5-.4 1-1 1.2-3.5-.2-6.8 0-10.4 0-.3 0 0-.6-.5-.8-1-.4-2.7-.4-3.6-.2-1.2.3-1.3 1.2-2.4 1.4-2 .4-4.5 0-6.6.4-.7 0-1.3.7-2 1-1 0-2.6.4-3-.5zM68 116.6c-1.5.6-3.3 0-5 0-.5 0-1.3.5-1.8.3-.5 0-1.4-1.2-1-1.6 1.3-1.7 3.8-2 5-3.8.7-1 0-2.5.3-3.7 0-.5.8-.4 1-.8 0-.2.2-.7 0-1-.5-.5-.8.7-1-1 0-1.4-.2-3 0-4.4 0-1 .7-.7 1-1.2 0-1-.4-1.6 0-2.6 0-.4.7-.3 1-.6 0-.4.2-1 0-1.3-.5-.6-1.8-.6-2-1.4 0-3.2-.2-6.5 0-9.4 0-.3.7-.3 1-.6 0-1.3-.2-2.4 0-3.7-.2-.8-.5-1 0-1.7 0-.5 1-.2 1-.7.3-2.6-.5-5.4-.2-8 0-.5.8-.4 1-.8 0-.7 0-1.6-.2-2.2 0-.3-.7-.3-.8-.7-.3-4 .3-7.6 0-11.5 0-.4-1 0-1-1.4v-4.4c0-1 2-1 2-1.8 0-1.5 0-3-.2-4.5-.2-.5-.8-.4-1-1-.2-.3 0-.7.2-1 .2-.6.8-1 1-1.4.2-1 0-2.2 0-3-.2-.4-.7-.8-1-1 0-.6 0-1-.4-1.5-.2-.4-1-.2-1.3-.4-1-.6-1.3-1.4-2-2-.7-.6-1.5-1-2-2-.3-.5 0-1.5.6-2 .4-.2 1 0 1.5 0 .4.3.4 1 .8 1 1.7.4 3.4-.4 5.2 0 .7 0 .8 1 1.5 1.4.4.2 1.3-.2 1.7 0 1 1.3 2.7 2.6 3.2 3.8 0 2.3.3 4.6 0 6.7 0 .3-.6 0-.7.5 0 .6 0 1.3.3 2 .2.3 1 0 1 .5.4 1 .4 2.3 0 3.3 0 .4-.7.2-.7.6-.4 5-.5 10 0 15.2 0 1 1.5 1.2 1.6 2 .5 5 0 9.8-.2 14.6 0 .7-.4 1.6-.7 2-.2 1.5 0 3 0 4.4 0 .5 1 1 1 1.4 0 1.3 0 2 .2 3.3 0 .5-1.2 1-1.6 1.4-.3.4-.4 1-.2 1.5.2.3.6 0 .7.5 0 .6 0 1-.3 1.6 0 .4-.8.4-1 .8 0 1 .5 2 .4 3.2 0 .3-.7.2-.7.6-.3 1.6.2 3.3 0 5-.2.5-1 .7-1 1.4-.2.3.7 0 .8.4.4.4-.3 1.4.3 1.6 1.7.5 3.8.4 5.6 0 1-.3 1.3-1.7 2.3-1.8 2.8.6 5.6 1.5 8.3.8 1-.3 1.5-1.2 2.4-1.4 8.3 0 15.8-1 24 0 1.8 0 0 6 .5 9 .2.6.8 1 1 1.7.7 1 1 1.5-.6 1.5-2.8 0-5.5.2-8.5 0-.6 0-.5-1-1-1.3-.6-.3-1.3.3-2 0-1 0-2-1-3-1-2.4-.4-5 .2-7.4 0-.5-.2-.6-1.3-1.2-1.4-5.8-.3-11.5.3-17.4 0-1.2 0-1.3-.5-2-.7-1.3-.4-3.3-.5-4.3 0-2 1-2 2.7-4 3.4zm70.7-23c-1.2 0-1.3-2-1.2-3.2 0-1.2 1.7-1 2.3-2.2.4-.8-.2-2.2.3-3 .6-.8 2-.8 2.5-1.6.3-.5 0-1.4 0-2 .2-2.2 0-4 0-6 0-1 .7-.8 1-1.7.3-1.2-.3-2.4 0-3.5.2-.5 1.4-.3 1.3-.7 0-.6-1-.3-1.2-.8-.3-1.7-.3-3.7 0-5.3.4-1 1.6-2 2-3 .2-1-.5-2.2 0-3.3 0-.7 1.3-1 1.5-1.6.5-1.7 0-4 .6-5.6.2-1 .7-2 1.3-2.5.2-.4.6-.6.7-1.2.2-.7-.3-1.3-.2-2 1-2.8 3-5 3.7-7.6.3-1-.3-2.4 0-3.3.6-1.2 2-1.2 2.7-2.4.3-1-.5-2.2 0-3.2.3-.6 1-1 2-1 .5 0 1.2.4 1.4 1 .3 1 0 2.3.4 3.3.8 2 2 3 3 4.8.3 1-.2 2.4 0 3.4.5 3.3 2 6.2 3 9 .4 3 1 5.4 1.8 8 .2.4.7.2.8.7.3 1-.4 1.8-.2 2.7.2 1 1.3 2 1.5 3 0 3.2 0 6.3.4 9.3.2.8.7 2 .7 2.8.3 6 .4 12.4 0 18 0 .5-.4.8-.6 1-1 2.4-1.2 4.3-1.8 6.4-.2.4-1 .8-1.3 1.3-.4 1 0 2.2 0 3.5-.5 2-1.5 3.5-2.2 5.5-.2 1 .2 1.8 0 2.6-.2.5-.8.7-1 1.2 0 1 .4 2.3 0 3.4-.2.6-.3.5-1 .7-.3.2-1.4.4-1.4 0-.3-2 .2-3.2 0-5-.4-2.3-1.3-3.6-2-5.8-.2-1 .3-3-.2-3.8-1-1.8-3.7-2.5-3.6-4.4 0-2 1.2-3 2.4-4.6 1.2-2 2-4.4 2.3-6.7 0-1.3-.3-2-1.3-2.7-2-1.7-5.3-3.2-8-4.4-.2-.3-.7.4-.7.8s.5.7.6 1.2c0 1.2-.7 2.4-.2 3.5.6 1.2 2.7 1.5 2.4 2.8-.2.8-.4 1-1 1.5-.5.2-1 .2-1.5.2-3.4-.5-6 .3-9 1.7-1 .5-2 1-3 1zM152 75v-6.7c0-.7.8-1.2.8-2 .2-1-.5-2.4-.2-3.5 0-.4 1.2 0 1.5-.3.3-1 .6-1.5 1-2.3 0-.2 0-1.6.3-2.8 0-.7.2-1.3.3-1.3 0 0 .2.7.6 1 .5 1.2 1 2 1.8 2.8.4.2 1 0 1.5 0 .3.2.4.8.7 1 .2.2.7 0 .8.2.2 1.2 0 2.8.2 4 0 .3.7.2.7.5v12c0 .6-1.5.6-2 .3-.7-.7-1.2-1.4-2.2-1.6-.4 0-.4-.8-.8-1-1.7-.4-3.3-.2-5 0v-.5zm28.7-37c.5 6.5-.4 13.6 0 19.5 0 1.5.2 1.7 2.3 1.7 1 0 2.3-1 3.3-2 .7-.7.6-2 1-2.5.3-.8 1-1.5 1-2.4.2-1.2-.2-2 .6-3 .2-.2.5-3.5.5-4.2-.8-2.8-3-4.3-4.7-6.4-.8-1.2-1.4-1.7-2.4-2-1.8-.3-1.7-.2-1.7 1.4zm-9.3 65.6c-.3 1.3.7 1.8 1.8 2.6l4 2.8c2 1.8 3.5 5 5 8.2.6-.7 0-4.3.5-6.5 0-.5.6-.8.7-1.3 0-1.6.2-3.3 0-5 0-.6-.7-1-1-1.7v-1.5c.2-.6.7-1 .8-1.7 0-1.7.2-3.5 0-5.2 0-.7-1-1-1-1.7 0-.6 1-.5 1.2-1 0-1.6-.5-3.2-.6-4.7.3-5-2.2-10-1.5-14.5.6-1.7 1.2-3.4 2-4.8.2-.4.6.4 1 .8 1 1.3 2.3 3 2.6 4.6.3 2-.8 4-.6 6 0 .5 1 .4 1.2 1 2 6.8 4.4 15.8 2.7 22-.5 2-1.7 3.5-2.3 5.4-.7 2-1 2.5 1.2 2.5.8 0 1.8 0 2.4.3 1.7.8 2.4 2.8 4 3.8l1.3 1c2.2 1 2.4.2 3-1.7 1-6 1.7-11.7 1.4-17.4 0-1 0-2-.6-2.6-.4-.5-1.7 0-2-.6 0-1 1-1.6 1.2-2.5-.4-2.5-.7-4.7-.8-7 0-3-.6-1.6-1.6-2.7-.5-.7-.7-1.3-.8-2.2-.3-2.5 0-5.4-.3-8-.2-1-.7-2.3-1.5-3-.2-.5-.8 0-1-.4-.3-.6.7-1 .3-1.6-.8-1.4-2.6-2.5-4-3.4-.4-.3-1 .4-1.5 0-.3-.3-.3-1.4 0-1.8 2.5-.3 3.7-1.5 5-2.8 1.5-2 2.3-4 3-6.3.5-1 0-2.2 0-3.3.4-2 1.5-4 1-6-1.2-4.7-3.3-9.6-7.6-11.7-1.2-.6-2.3 0-3.7-.5-1.5-.4-2.8-1.3-4.4-1.6-1-.4-2.4 0-3.7 0-.8-.3-1-1.2-1.7-1.3-.5 0-1 .7-1.6.7-3.8.4-7-.4-10.7 0-.5.2-.4.8 0 1 .8.6 2 .4 2.6.7 3 1.3 4.2 3.7 5.4 6 .3.6 1.3-.5 2-.6.8 0 1.3-.2 2 .5.3.5-.6 1.3-1.2 1.8-1.4 2-4.3 2.3-5.3 4-1.2 2 0 4.4.5 6.7 1 3.3 1 7 1.4 10 0 1 .6 1.7.7 2.6v3c3 8.7 1.5 18.8 1.8 27 0 .7 1 1 1 1.5.3 1-.3 2-.6 2.8-1.4 3.6-2.8 6.3-3.6 9.3z"/></svg>