<?xml version="1.0" encoding="UTF-8" standalone="no"?><svg xmlns="http://www.w3.org/2000/svg" viewBox="0 0 128 72"><path d="M0 0h128v72H0z"/><path fill="#0aa8e5" d="M89.43 32s5.53.3 5.53-2.97c0-4.25-7.37-8.08-7.37-8.08s1.1-2.45 1.8-3.82c.7-1.38 2.7-6.7 2.9-7.94.2-1.6-.2-2-.2-2-.5 3.2-5.85 12.7-6.27 13-5.25-2.5-12.4-3.2-12.4-3.2S66.5 2.3 59.9 2.3c-6.55 0-6.5 12.66-6.5 12.66s-1.86-3.6-4.2-3.6c-3.4 0-4.5 5.15-4.5 10.7-6.7 0-12.34 1.5-12.85 1.67-.5.15-2.1 1.3-1.38 1.15 1.46-.45 8.34-1.5 14.4-1 .32 5.3 3.4 12.2 3.4 12.2s-6.6 9.62-6.6 16.42c0 1.82.77 5.12 5.53 5.12 4 0 8.46-2.4 9.3-2.88-.72 1.03-1.27 3.03-1.27 3.94 0 .76.4 2.9 3.5 2.9 3.93 0 8.34-3 8.34-3s4.15 6.9 7.72 10.06c.9.84 1.8 1 1.8 1s-3.57-3.4-8.2-12.17c4.3-2.67 8.8-8.98 8.8-8.98h4.64c6.45 0 15.6-1.4 15.6-6.5 0-5.3-8.2-10.1-8.2-10.1zm.7-3.17c0 1.86-1.77 1.85-1.77 1.85l-1.34.1s-2.56-1.37-4.1-2c0 0 2.4-3.7 2.95-4.74.43.24 4.27 2.66 4.27 4.8zM63.2 9.8c3.02 0 7.34 7.13 7.34 7.13s-6.75-.6-12.3 2.66c.15-5.2 1.9-9.8 4.95-9.8zm-12 5.78c.96 0 1.9 1.16 2.28 2.17 0 .65.34 4.47.34 4.47l-5.56-.2c0-5.03 1.97-6.44 2.93-6.44zm-.58 34.8c-3.05 0-3.67-1.7-3.67-3.22 0-3.45 2.75-8.28 2.75-8.28s3.08 6.5 8.48 9.23c-2.68 1.6-4.9 2.3-7.56 2.3zm9.86 6.78c-2.13 0-2.4-1.38-2.4-1.7 0-1 .8-2.16.8-2.16s3.57-2.4 3.8-2.68l2.63 4.94s-2.7 1.6-4.8 1.6zm6.65-2.7c-1.3-2.26-2.25-4.62-2.25-4.62s5.32.35 8.17-2.6c-1.78.8-4.62 1.8-7.92 1.5 6.9-6.1 10.94-10.5 14.36-15.06-.3-.35-1.9-1.44-2.3-1.62-2.1 2.48-10.1 11.03-17.5 15.27-9.4-5.12-11.4-20.18-11.6-23.3l5.1.5s-1.98 3.4-1.98 5.9c0 2.53.3 2.67.3 2.67s-.07-4.4 2.64-7.77c2.07 10.97 4.23 16.58 5.9 19.94l2.44-1.07S57.77 30.57 58 21.34C60.24 20.2 63.4 19 67 19c9.46 0 17.05 4.07 17.05 4.07l-2.9 4.13s-2.67-4.78-6.4-5.64c1.96 1.47 4.2 3.4 5.32 6.2-7.83-3.05-17.28-4.67-20.3-5.02-.27 1.12-.24 2.72-.24 2.72s12.67 2.33 21.9 7.6c-.04 11.54-12.6 20.38-14.34 21.4zm12-8.6s3.94-5.16 3.88-12c0 0 6.4 3.93 6.4 7.77 0 4.3-10.2 4.22-10.2 4.22z"/></svg>