<svg xmlns="http://www.w3.org/2000/svg" viewBox="0 0 55.3 58.4"><path fill="#210" stroke="#000" stroke-width=".3" d="M45.6 12s3 0 3-1c-.5-1-2-.4-2-.4z"/><path fill="#eb0" d="M32.8 7.8c-4.4.2-8.3 2.6-10.2 6.6a12.3 12.3 0 0 0 4.3 14.8c1 .7 1.2 1.6 1 2.4-.3.8-1 1.2-2.4 1.2-1 0-4.7-.8-6.4-1-2-.2-2.5-.5-5.4-1.7-2.4-1-3-3.4-4-4.3-.7-1-1.7-1.5-2.6-1.2-.8.4-1.3.7-1.6 1.3 0 0-2 4-2.3 5-.3.7-1.8 4-2 7-1.6 22 29 22.8 44 18.8 6-1.4 10.2-6.5 10-12.7-.3-4.7-3-8.8-6.7-10.8-1.8-1.6-3.3-3-4-5 .4-1.2 1-1.7 1.5-2.7 3-6 0-13.4-6.5-16.3-2-1-4-1.3-6-1.3h-.7z"/><path fill="none" stroke="#fff" stroke-linecap="round" stroke-linejoin="round" stroke-width="1.1" d="M48 34.6c1.3 1 2.6 1.8 3.5 3 1.3 1.6 2 3.4 2 5.3.3 2-.2 4.2-1 6m-.8 1.2c-1 1.7-2.6 3-4 4" opacity=".5"/><path fill="#c91" d="M4.3 28.3S3 34 2.6 36.8A16 16 0 0 0 7 50c4 3 11.3 7.2 11.3 7.2s-8.2-2-11.3-5C4 49 1.5 45 1.2 40.8c-.2-4.4 1.6-9.3 1.6-9.3zm20.5-15.8c-1 2.2-1.6 4.6-1.6 6.7a20 20 0 0 0 3.3 9.8c1.7 2.3-3-3.5-3.4-4-.3-.8-2-4.5-1.2-8.3.8-4 7.4-14.4 3-4.2z" opacity=".5"/><circle cx="39" cy="19.1" r="3.7" fill="#c91"/><circle cx="38.7" cy="18.6" r="3.1" fill="#322"/><circle cx="38.3" cy="17.9" r="1.5" fill="#fff"/><path fill="none" stroke="#000" stroke-width=".3" d="M32.8 7.8c-5.7 0-11 4.8-11.2 10.6-.3 4.5 2.3 8.8 6 11.4 1.7 2.6-2.2 3.7-4 2.7-3.2-.5-6.5-.6-9.4-2-3-1-3.4-4.3-5.6-5.8-3.2-1-3.8 3.3-5 5.3-2 4-3 8.6-2 13 1 6 6 10.7 11.7 12.7 9 3.4 19.2 3.3 28.6 1.7 4.4-.8 9-2.5 11.4-6.4 3.5-5 2.2-12.4-2.5-16.3-2.3-1.6-4.8-3-6-5.6-1-2 2-4 2-6.3 1.3-6.2-3-12.4-9-14.2-1.6-.5-3.3-.6-5-.6z"/><path fill="#f11" stroke="#000" stroke-width=".3" d="M39.2.8c1.4 1.2 1.4 2.3 2 3.8.5 1 1.4 2.5 1.3 3.4-.2.7-1.8.4-3 .8-2.6.8-5.4 1.7-8.2 2.3-2.5 1-5 1.6-7.4 2.7-.7.7-2 .7-2-.5-1-1.7-2-3.5-2-5.3 0-1.3 0-2.7 1-3.4 1.7-1 3.6-1.7 5.4-2.5C29 1 31.6.8 33.8.4c2-.3 4.2-.4 5.4.5z"/><path fill="#a41" d="M46.8 20.2c.6 0 1 .6 1.4 1 .8.4 3.4 0 4 .2 1.3 1.3-2 4.2-3.7 3.2-.8-.3-.6 0-.3.4 1 1 2.6 1.8 2 2.4-1 1-4 0-5.2-1-2-2-1.7-3.4-1.6-4 .2-.6 1.3-1.4 2.4-1 .2 0 .8-1 1-1.2z"/><path fill="none" stroke="#000" stroke-linecap="round" stroke-width=".3" d="M47 20.4c.6 0 1 .4 1.2.6.8.7 3.4.3 4 .5 1.2 1.5-2 4-3.7 3-1 0-.4.3-.2.5 1.2 1 2.4 1.8 2 2.4-1 1-3.8.2-5-.8"/><ellipse cx="432.2" cy="254.6" fill="#c91" mask="url(#a)" rx="1.8" ry="1.7" transform="translate(-76.3 -64) scale(.26458)"/><path fill="#f11" stroke="#000" stroke-width=".3" d="M35.7 10l-7 2c-.7.6 1 1 1.3 1.2 2 .7 4 1.2 6.2 1.3 2 0 4-.4 5.8-1 2-.7 3.5-1.6 5.3-2.5.4-.2 2 0 1-.6l-5-2S42 8 41 8.4L35.7 10z"/><path fill="#800" d="M24.3 3l.3 2.8c0 1.4-1 2-.8 4l.6 3.6c-2.4 2-2.5-.2-4-3-1-2.3-.5-5 .3-5.7C22.2 4 23 3.5 24.3 3z" opacity=".4"/><path fill="#eb0" d="M37.8 2.2c.6 0 1.3.5 1.5 1v1c.6.4.6 0 1-.4 0-.2 0-.5.2-.5 0 0 .2 0 .3.2l1 2.3c-.4.6-1 .8-2 1-1.2 0-2-.3-1.8-2 0-.2.2-.4 0-.7-.5-.3-.7-1-.6-1.4 0 0 0-.3.4-.4z"/><path fill="#a41" d="M37.5 3.6c-.6 0 0 .2 0 .6.5-.4.2-.4.2-.5z"/></svg>