<?xml version="1.0" encoding="UTF-8" standalone="no"?>
<svg xmlns="http://www.w3.org/2000/svg" id="svg727" width="800" height="800" xmlns:xlink="http://www.w3.org/1999/xlink">
  <style>
  #ente {
    transform: translate3d(0, 0, 0) translateY(4%) rotate(0deg);
    transform-origin: 50% 50%;
    animation: x 1.5s ease-in-out alternate infinite
  }

  #cap {
    transform: translate3d(0, 0, 0) rotate(0deg);
    transform-origin: 20% 50%;
    animation: y 1.5s ease-in-out alternate infinite
  }

  @keyframes y {
    from {
      transform: translate3d(0, 0, 0) rotate(0deg);
      transform-origin: 20% 50%
    }

    to {
      transform: translate3d(0, 0, 0) rotate(-0.5deg);
      transform-origin: 20% 50%
    }

  }

  @keyframes x {
    from {
      transform: translate3d(0, 0, 0) translateY(4%) rotate(0deg);
      transform-origin: 50% 50%
    }

    to {
      transform: translate3d(0, 0, 0) translateY(2%) rotate(-2deg);
      transform-origin: 50% 50%
    }

  }
  </style>
  <defs>
    <linearGradient id="ah" x2="1" gradientUnits="userSpaceOnUse" gradientTransform="matrix(36 571 689 -29 342 408)">
      <stop stop-color="#249" offset="0"/>
      <stop stop-color="#37c" offset=".3"/>
      <stop stop-color="#48c" offset=".6"/>
      <stop stop-color="#8cd" offset=".8"/>
      <stop stop-color="#fff" offset="1"/>
    </linearGradient>
    <radialGradient id="Q" cx="0" cy="0" r="1" spreadMethod="pad" gradientUnits="userSpaceOnUse" gradientTransform="matrix(635,0,0,635,391,295)" fy="0" fx="0">
      <stop stop-color="#fff" offset="0"/>
      <stop stop-color="#eee" offset=".3"/>
      <stop stop-color="#cde" offset=".8"/>
      <stop stop-color="#fff" offset="1"/>
    </radialGradient>
    <linearGradient id="U" x2="1" gradientUnits="userSpaceOnUse" gradientTransform="matrix(-30 -244 -294 25 296 428)">
      <stop stop-color="#7bd" offset="0"/>
      <stop stop-color="#fff" offset="1"/>
    </linearGradient>
    <linearGradient id="V" x2="1" gradientUnits="userSpaceOnUse" gradientTransform="matrix(23 -156 -188 -19 231 442)">
      <stop stop-color="#7bd" offset="0"/>
      <stop stop-color="#fff" offset="1"/>
    </linearGradient>
    <linearGradient id="Y" x2="1" gradientUnits="userSpaceOnUse" gradientTransform="matrix(-81 -65 -78 67 326 411)">
      <stop stop-color="#7bd" offset="0"/>
      <stop stop-color="#fff" offset="1"/>
    </linearGradient>
    <linearGradient id="Z" x2="1" gradientUnits="userSpaceOnUse" gradientTransform="matrix(-501 143 172 415 846 323)">
      <stop stop-color="#7bd" offset="0"/>
      <stop stop-color="#fff" offset="1"/>
    </linearGradient>
    <linearGradient id="aa" x2="1" gradientUnits="userSpaceOnUse" gradientTransform="matrix(-8 -207 -250 7 55 447)">
      <stop stop-color="#369" offset="0"/>
      <stop stop-color="#8cd" offset="1"/>
    </linearGradient>
    <linearGradient id="ab" x2="1" gradientUnits="userSpaceOnUse" gradientTransform="matrix(-279 -53 -64 231 112 402)">
      <stop stop-color="#7bd" offset="0"/>
      <stop stop-color="#fff" offset="1"/>
    </linearGradient>
    <radialGradient id="M" cx="0" cy="0" r="1" spreadMethod="pad" gradientUnits="userSpaceOnUse" gradientTransform="matrix(22 0 0 18 262 418)" fy="0" fx="0">
      <stop stop-color="#8cd" offset="0"/>
      <stop stop-color="#249" offset="1"/>
    </radialGradient>
    <radialGradient id="f" cx="0" cy="0" r="1" spreadMethod="pad" gradientUnits="userSpaceOnUse" gradientTransform="matrix(4 0 0 3 522 641)" fy="0" fx="0">
      <stop stop-color="#fff" offset="0"/>
      <stop stop-color="#37c" offset="1"/>
    </radialGradient>
    <radialGradient id="k" cx="0" cy="0" r="1" spreadMethod="pad" gradientUnits="userSpaceOnUse" gradientTransform="matrix(8 0 0 7 567 722)" fy="0" fx="0">
      <stop stop-color="#fff" offset="0"/>
      <stop stop-color="#37c" offset="1"/>
    </radialGradient>
    <linearGradient id="l" x2="1" gradientUnits="userSpaceOnUse" gradientTransform="matrix(2 -4 -4 -2 564 726)">
      <stop stop-color="#249" offset="0"/>
      <stop stop-color="#fff" offset="1"/>
    </linearGradient>
    <radialGradient id="m" cx="0" cy="0" r="1" spreadMethod="pad" gradientUnits="userSpaceOnUse" gradientTransform="matrix(7 0 0 6 568 724)" fy="0" fx="0">
      <stop stop-color="#fff" offset="0"/>
      <stop stop-color="#37c" offset="1"/>
    </radialGradient>
    <radialGradient id="n" cx="0" cy="0" r="1" spreadMethod="pad" gradientUnits="userSpaceOnUse" gradientTransform="matrix(8 0 0 7 569 723)" fy="0" fx="0">
      <stop stop-color="#fff" offset="0"/>
      <stop stop-color="#37c" offset="1"/>
    </radialGradient>
    <radialGradient id="o" cx="0" cy="0" r="1" spreadMethod="pad" gradientUnits="userSpaceOnUse" gradientTransform="matrix(9 0 0 7 565 721)" fy="0" fx="0">
      <stop stop-color="#fff" offset="0"/>
      <stop stop-color="#37c" offset="1"/>
    </radialGradient>
    <radialGradient id="p" cx="0" cy="0" r="1" spreadMethod="pad" gradientUnits="userSpaceOnUse" gradientTransform="matrix(3 0 0 2 568 724)" fy="0" fx="0">
      <stop stop-color="#fff" offset="0"/>
      <stop stop-color="#37c" offset="1"/>
    </radialGradient>
    <radialGradient id="q" cx="0" cy="0" r="1" spreadMethod="pad" gradientUnits="userSpaceOnUse" gradientTransform="matrix(7 0 0 6 566 722)" fy="0" fx="0">
      <stop stop-color="#fff" offset="0"/>
      <stop stop-color="#37c" offset="1"/>
    </radialGradient>
    <radialGradient id="r" cx="0" cy="0" r="1" spreadMethod="pad" gradientUnits="userSpaceOnUse" gradientTransform="matrix(2 0 0 1 561 725)" fy="0" fx="0">
      <stop stop-color="#fff" offset="0"/>
      <stop stop-color="#8cd" offset="1"/>
    </radialGradient>
    <radialGradient id="s" cx="0" cy="0" r="1" spreadMethod="pad" gradientUnits="userSpaceOnUse" gradientTransform="matrix(6 0 0 5 561 725)" fy="0" fx="0">
      <stop stop-color="#8cd" offset="0"/>
      <stop stop-color="#249" offset="1"/>
    </radialGradient>
    <linearGradient id="t" x2="1" gradientUnits="userSpaceOnUse" gradientTransform="matrix(-6 -.3 .4 -5 573 722)">
      <stop stop-color="#8cd" offset="0"/>
      <stop stop-color="#fff" offset="1"/>
    </linearGradient>
    <radialGradient id="P" cx="0" cy="0" r="1" spreadMethod="pad" gradientUnits="userSpaceOnUse" gradientTransform="matrix(22 0 0 18 338 418)" fy="0" fx="0">
      <stop stop-color="#fff" offset="0"/>
      <stop stop-color="#bde" offset="1"/>
    </radialGradient>
    <radialGradient id="radialGradient43037" cx="0" cy="0" r="1" xlink:href="#f" gradientUnits="userSpaceOnUse" gradientTransform="matrix(4,0,0,3,522,641)" fx="0" fy="0" spreadMethod="pad"/>
    <symbol id="use628">
      <path fill="#ecf2fa" d="M523.5 649.2c3-1.4 5.3-5.5 2.8-7.8-2.5-2.4-2.7 0-7.6-.7-5-.6-5.7 2.8-4 5.7 1.7 3 5.5 4.2 8.8 2.8"/>
      <path fill="#249" d="M520.3 642.8c3-1.4 8.7 1 6-1.5-2.5-2.4-2.7 0-7.6-.7-5-.6-5.5 2.8-4 5.7 1.7 3 2.3-2.2 5.4-3.6"/>
      <path fill="#fff" d="M527.4 643.2c0-.5-.4-1-.6-1.3-2-1-4-2-6.2 0-2.4 1.2-4.8 4-6 4 .2.2.6 1 1 1 2.3-.6 2.8-2 4.8-3.7 2-1.5 4.2-1.8 6.8-.8"/>
      <path fill="#b6ceed" d="M527.4 643.2c0-.5-.4-1-.6-1.3-2-1-4.6-1-7 1-2.2 1.2-4 3-5 3 .2 0 .5 1 .8 1 2.5-.7 3-2.5 5-3.8 2.2-1.3 4.2-1.7 7-.7"/>
      <path fill="#6196d8" d="M527.3 645.4c.7-2 0-3-.5-3.6-2-.3-4.3.3-6.6 2s-4.3 2.4-5.4 2.5c.2.4.5.8.8 1 4-5.4 10.4 2.3 11.7-2"/>
      <path fill="url(#radialGradient43037)" d="M527.3 645.4c.7-2 0-3-.5-3.6-2-.3-4.3.3-6.6 2s-4.3 2.4-5.4 2.5c.2.4.5.8.8 1 2.5-.4 3-2 5.3-3.5 2-1.4 6-1.2 6 1.5"/>
      <path fill="#d0e0f3" d="M527.4 643.2c0-.5-.4-1-.6-1.3-2-1-4.3 0-6.6 2s-4.3 2-5.4 2c.2.2.5 1 .8 1 2.5-.6 3-2 5-3.7 2.2-1.5 4.2-1.8 7-.8"/>
      <path fill="#fff" d="M521 647.6c1 0 1.4-.3 1.4-.7 0-2-.6-2-1.3-2h-1 1.8"/>
      <path fill="#9dd5e3" d="M517.6 643.6c1-1 2-2 4.7-2.7-3.5 0-5 0-6.6 1-1.7 1-1 3-1 3 .5 0 1.8-1 3-2"/>
      <path fill="#3f6bac" d="M517.6 643.6c1-1 2-2 4.7-2.7-3.5 0-4.6 0-6.3 1-1.7 1-1.4 2.5-1.4 2.5.6 0 2-.5 3-1.5"/>
      <path fill="#9dd5e3" d="M527 645.4c0-.2-.5-1.5-1.7-2-1-.5-3 0-4 .3 3.4-.5 5 2.8 5.5 1.6"/>
      <path fill="#fff" d="M515.8 642.3v-.3.3m2 5s1 1.4 3.4 1.4c1.6.4 3 0 2.5 0-.4.3-3 1-4.8 0-2.8-.7-2-1-2-1l.2-.4"/>
    </symbol>
  </defs>
  <defs>
    <symbol id="au">
      <path fill="url(#P)" d="M338.5 416.7l-15-7.6 14.5 9-30-4.4 29.2 5.3-13.3 6 13.3-5.5-12.8 23.8 13.3-23.4 2.4 6.3-1.4-6.3 10 9.4-9-10 9 3-8.8-3.6 31.3-7.3-31.5 7 27.6-19.5-28 19 2.4-8.2-3 7.6-8-19"/>
    </symbol>
  </defs>
  <path fill="url(#Q)" d="M0 800h800V0H0v800"/>
  <path fill="#e0eff7" d="M844 278.5c-100.2 52.8-144.5 51-219 39-129.8-19-256.8 6-354.7-16.7-97.8-22.8-235 6.2-281.7 12-46.4 5.7-104.2-9.7-104.2-9.7v153c1.8 86 937-88.3 959.5-112v-65"/>
  <path fill="#7bd" d="M844 316.8c-108.3 47-141.4 24.7-208.7 12.6-130-23.2-290.5 35.7-388.3 9.8-97.8-26-211.8-27.4-258.4-23-46.4 4.2-104.2 25-104.2 25v51.5c20 22.7 80 36 154 45 141 17 783-42 805.4-65v-56"/>
  <path fill="#63a9df" d="M844 326c-108.3 46.7-208.7 19-279.5 13.6-137-10.6-194.3 22-289 26.8-94.6 4.7-84.2-27-213.4 0-129 26.8-177-20-177-20v24.2c12.5 24.7 54.8 61.6 154 73.8 65 8 282 74.2 453 58.6 200-18.3 352-120.4 352-134v-43"/>
  <path fill="url(#U)" d="M538.2 324.5c-23.3-6-145.7 2.5-204.2 9s-91.2-29.7-135.7-34c-44.3-4.2-148 15.4-148 15.4s117.7 2 154.3 21c36.8 19 72.5 27 125.6 18.5 53-8 208-30.6 208-30.6"/>
  <path fill="url(#V)" d="M405.8 337.8c-166.7 13.4-131.5-15.4-205.4-31-31.5-6.6-107.2 5-107.2 5s88.7 2.2 115.2 16c26.5 13.7 54.4 26.2 92.8 22.7s104.6-13 104.6-13"/>
  <path fill="#b2d8ec" d="M369 353c161.5-26.8 208.2-40.2 292-10.6 0 0-28 11.6-78 5-50-6.4-46.2-16.2-214 5.6"/>
  <path fill="#a6d0e8" d="M345 413.6c-22.6 9.2-37.4-1.4-56.6-9.5-19.2-8-28-10-50.7-13-22.8-3.4-85.8 4-85.8 4s41-12.4 83-12.2c41.4 0 73-9.6 98-14C357.2 364 458 348 486 346c30.7-2.5 64.4 0 93 8-153.5-10.6-300.3 37.7-234.3 59.7"/>
  <path fill="url(#Y)" d="M298.2 408.4c-23.2-22.7-52.8-18-72.5-21.6 6-.4 28-.5 45.5-2.7s72-13 72-13-36 13.5-40 18.7c-3.8 5.3-6.2 12.8-4.8 19.3"/>
  <path fill="url(#Z)" d="M741.7 417.8c42.8-12.8 47.8-36 67.8-61.3 0 0-34 41.5-70 46.2-36 4.7-66.7 4.5-76 4.8l-9.6.2c21 2.5 68 16 87 10"/>
  <path fill="url(#aa)" d="M206.2 427c-46-33.4-217.3 23-305.6-18.3 29.4 78 191.4 21.4 255.6 14 26.7-3 50 4.2 50 4.2"/>
  <path fill="#7bd" d="M261.6 375c-99-1-151.6 24.3-208.6 27-57.3 2.7-116-19-116-19s56.6 6.6 107 1.8c50.5-4.8 84.5-20 217.7-9.4"/>
  <path fill="url(#ab)" d="M186 375.6S70.8 400.4 42.4 398.8C14 397.2-13.4 391-13.4 391s41.7-2.6 62.2-2c20.6.8 77.8-9 137.2-13.3"/>
  <path fill="#9fc9db" d="M362.7 418.2c-137-38 102.7-72.3 195.2-66.5 21 1.3 51.3 5.8 101.3-1-22 10.8-93.5 12.2-129.5 28.6-55.6 25.5-3 37.4-60.6 42.6-71 6.3-92-20.5-107.5-4"/>
  <g id="ente">
    <path id="path5" fill="#f2c002" fill-rule="evenodd" stroke-width="4.3" d="M371.8 298.8c-9.4 19.6-1 44.4 16.5 56.6 9 7-1.7 17.4-10.3 13-13-2.5-27-3-39-9.2-10.6-2.8-12.7-14.8-20.3-21-12-6.4-15.8 10-19.5 17.8-7 14.7-12.2 31-9.3 47.5 2.5 23 20 41.5 40.8 50.2 34 14.5 72.3 15 108.4 9.7 17.2-2.5 36-7 46.8-21.8 16.3-19.5 12.2-51.4-8-66.7-8.7-5.8-18.3-11.4-22.7-21.4-2-7.2 8.6-13.8 8.5-22.4 6-25.6-13.8-51.5-38.6-56.7-20.6-5-44.5 4.3-53.4 24.3" color="#000" overflow="visible"/>
    <path id="path7" fill="#fff" stroke-width="3" d="M469 374.6a1.5 1.5 0 0 0-.8 2.8c10.5 6.8 18.6 18.4 20 27.6 1.8 10-1 18.8-3.8 25.5a1.5 1.5 0 1 0 2.7 1.2c3-7 6-16.3 4.2-27.2-1.7-10.5-10.2-22.4-21.4-29.7a1.5 1.5 0 0 0-1-.2zm14 59.4a1.5 1.5 0 0 0-1.3.7c-4 7-8 10-14.5 14.7a1.5 1.5 0 1 0 1.8 2.4c6.4-4.6 11-8 15.3-15.6a1.5 1.5 0 0 0-1.3-2.2z" overflow="visible" white-space="normal" style="line-height:normal;font-variant-ligatures:normal;font-variant-position:normal;font-variant-caps:normal;font-variant-numeric:normal;font-variant-alternates:normal;font-feature-settings:normal;text-indent:0;text-align:start;text-decoration-line:none;text-decoration-style:solid;text-decoration-color:#000000;text-transform:none;text-orientation:mixed;shape-padding:0;isolation:auto;mix-blend-mode:normal" opacity=".5" solid-color="#000000" color="#000" font-family="sans-serif" stroke-linecap="round" stroke-linejoin="round"/>
    <path id="path9" fill="#e6b100" fill-rule="evenodd" stroke-width="4.4" d="M303.8 345.8c-3.8 15.3-7.8 32.8-8 41.7 0 17.7 5 35.8 23.5 50.7 9.3 7.4 15 11.6 34.3 23-20.3-5.7-26.6-8-44-20.8-17-15-21.6-34.4-20.2-52.2 1.4-14.3 8-28.3 8-28.3 2.5-5.7 5-11.2 6.5-14.2"/>
    <circle id="circle11" cx="429" cy="317.8" r="14.2" fill="#da9c16" fill-rule="evenodd" stroke-width="1.3" overflow="visible" color="#000"/>
    <circle id="circle13" cx="427.5" cy="315.9" r="11.8" fill="#393228" fill-rule="evenodd" stroke-width=".8" overflow="visible" color="#000"/>
    <circle id="circle15" cx="424.4" cy="312.4" r="5.7" fill="#fff" fill-rule="evenodd" stroke-width="3.8" overflow="visible" color="#000"/>
    <path id="path17" fill="#e6b100" fill-rule="evenodd" stroke-width="4.4" d="M383.3 286.6s-9 8.5-8.8 30.2c.2 21.6 13.8 38.6 13.8 38.6s-14-8.8-19.2-28.4c-3.6-13.8 2.4-27.6 2.4-27.6l12-12.8"/>
    <path id="path19" fill="none" fill-rule="evenodd" stroke="#000" d="M410.3 273.3c-21.6.8-41.6 18.8-42.3 40.8-1.2 16.8 8 32.7 21.3 42.4 8 8.6-5 16-13 12-12.5-2.7-25.8-3-37.3-9.2-10.6-2.8-12.7-14.8-20.3-21-12-6.4-15.8 10-19.6 17.8-7 14.7-12 31-9 47.5 2.5 23 20 41.5 41 50.2 33.8 14.5 72 15 108.2 9.7 17.2-2.5 36-7 46.8-21.8 16.3-19.5 12.2-51.4-8-66.7-8.7-5.8-18.3-11.4-22.7-21.4-2-7.2 8.6-13.8 8.6-22.4 5.7-25.6-14-51.5-38.8-56.7-5-1-10-1.5-15-1.2" overflow="visible" color="#000"/>
    <g id="g23">
      <path id="path21" fill="#b94519" fill-rule="evenodd" stroke-width="4.4" d="M451.7 329.8c1-2.5 3.7-4 6.2-4.7 1-.5 2.6.5 3.5-.5 1.2-1.2 2-3 3.2-4 2.3 0 4 1.8 5.4 3.2 2 1.5 4.8 1.4 7.2 1.5 3 0 6-.3 8.8 0 1.6 2 .5 5-1 6.7-2.6 3-6.3 5.3-10.4 5.4-1.8.4-3.7-1.5-5.2-1 1 1.4 2.3 2.3 3.4 3.4 1.8 1.7 4 3.2 5.3 5.3 1 1.7-1 3-2.4 3.4-4 1.3-8.3.5-12-.8-3.2-1-6-2.7-8-5-3-3.2-5.5-7.8-4-12.3v-.2-.2" overflow="visible" color="#000"/>
    </g>
    <g id="g27" fill="none" stroke="#000">
      <path id="path25" fill-rule="evenodd" d="M464.8 320.5c2.4 0 4.2 2.2 5.3 3.2 3 2.6 13.3 1 16 1.5 4 5.2-8.2 15-14.8 11.4-3.4-1-1.2.7-.4 1.4 4.4 4.3 9 7 7 9-3.6 4-15 1.8-19.6-2" stroke-linecap="round" overflow="visible" color="#000"/>
    </g>
    <g id="cap">
      <path id="path29" fill="#ff1515" stroke-width="0" d="M417.3 242c1.5-.2 4.3-.2 9.8.2 3 .2 4 .3 6 1 1.4.5 3 1.2 3.7 1.7 2 1.3 4.3 5 7.4 12.4l3 6.6 2.4 6c.5 1.8.7 2.6 1.2 3-.3 0-1.7-.2-3.7 0-2.4.4-6.2 1.3-9.5 2.4-3.3 1-4.7 1.6-9.5 3-4.8 1.5-12.3 3.7-17.8 5.2s-10 2.7-14 4c-3.5 1-7.7 2.5-10.2 3.5-3.5 1.5-7 3-10.2 4.6l-3 1.2c-.5 0-2-2.8-2.6-5l-1.7-3.8c-.6-1-1.8-3.7-2.7-6-1.5-3.4-1.7-4.2-2-6.3l-.3-3.2v-3c-.3-3.4-.2-4.7.7-6l1-1.8c.4-1 3-3.2 5.2-4.4 2-1 6.5-3.3 8.8-4l3.8-1.8c4.6-2.2 10.6-4.3 15.3-5.4l5-1c1.3-.4 4.6-1 7.3-1.6l6-1.2.7-.2"/>
      <path id="path31" fill="#281305" stroke="#000" d="M462 286.4c1-.5 1.2-.5 2.2-.4 2.8.2 6.6-.4 8.3-1.5.8-.5 1-.8 1-1.5 0-.6-4.7-3.3-4.7-3.3"/>
      <path id="path33" fill="#ff1515" fill-rule="evenodd" stroke="#000" d="M453.6 274.3c-2.4-.7-5-1.8-7.4-1.2-6.7 1.2-13 4-19.4 5.7-10 3-20 5.7-30 8.6-3 2 2.6 4 4.3 4.7 7.6 2.8 15.5 4.6 23.4 5.2 7.5 0 14.7-1.7 21.8-3.8 7.3-2.5 14-6.2 21-9.6 2-1.3 5.3-1.2 6.4-.8.3-3.2-4.8-2.6-7-4-4.3-1.5-8.5-3.3-13-4.7"/>
      <path id="path35" fill="#e21515" d="M379.7 253c-.8 2.7-1.4 6 0 8.6 1 1.2 1.4 2.8.3 4-1 2-3 3.6-4 5.8-.6 1.8 1 3.2 2.2 4.4 1 1.5 1.2 3.5 1 5.2-.8 1.7-3 2.7-2.4 4.8.6 1.8 2.7 2.8 3 4.8.3 1.6.5 3.3-1.5 3.6-2 1-3.8 2-6 2.5-1.6-2.8-2.4-6-4-9-1.8-3.3-3.2-7-4.4-10.6-.5-3-.4-6.4-.8-9.6-.3-3.4 2-6.4 4.7-8.3 2.2-2 5-3 7.8-4.4l4-1.6"/>
      <path id="path37" fill="#e21515" fill-rule="evenodd" stroke-width="7.9" d="M471 281.3h-.6c-2 .5-4.2 2-5.7 2.8-2 1.2-7.7 4.2-10.4 5.4-2.7 1.2-8.2 3.5-13.2 5l-9.8 2.4 5.7-1c4.4-1 7.8-1.8 12.6-3.8 4.8-2 10.8-4.7 14-6.5 3-1.7 4.2-2.2 6-2.5 1.6-.4 2.2-.7 3-.4.5.3.8.7.8.7s.4-1 .3-1.5c-.4-.6-.4-.5-.6-.6h-2"/>
      <path id="path39" fill="#f2c802" fill-rule="evenodd" stroke-width="2.1" d="M432 249.4c2 0 3.8 1.4 4.8 3.2.8 1.2 1 3 .6 4.3 0 1 1.3 1 2 .5.8-.5 2-1 2-2.2-.6-1 .6-2 1.2-1 .8 1 1 2.3 1.7 3.5l2.6 6c-1.2 2-3.5 3-5.7 3.4-2 .3-4.4.4-6-1-2-1.3-3.2-3.4-3-5.7 0-1 1-2 .4-3s-1.8-1.7-2.2-3c-.7-1.3-1-3.2 0-4.5.4-.4 1-.6 1.4-.6" overflow="visible" color="#000"/>
      <path id="path41" fill="#da9c16" fill-rule="evenodd" stroke-width="2.1" d="M431.7 252.5c-.5 0-.7.7-.3 1.4.4.6 1 1.2 1.7 1 .6 0 .8-.6.4-1.4 0-.3-.3-.5-.6-.7.2 0 .4.3.5.5.3.6 0 1.2-.3 1.2-.5 0-1-.3-1.4-1-.3-.5-.2-1 .3-1.2h-.2" overflow="visible" color="#000"/>
      <path id="path43" fill="#393228" fill-rule="evenodd" stroke-width="2" d="M431.6 253.7c.3.6 1 1 1.3 1 .4 0 .6-.6.3-1.2-.3-.7-1-1-1.4-1-.6 0-.7.6-.4 1.2" overflow="visible" color="#000"/>
      <path id="path45" fill="#b94519" fill-rule="evenodd" stroke-width="2.1" d="M432 255.3c-.3-.3-.6-.4-.8-.4-.2 0-.4-.2-.5-.3 0-.2-.4 0-.3 0 0 .3-.2.5-.4.5h-.6v.5c.4.4.8.6 1.3.6 0 0 .3-.3.3 0v.5c-.2 0-.2.3 0 .4.2.2.5 0 .7 0 .3 0 .6-.5.6-1 0-.3-.2-.7-.4-1" overflow="visible" color="#000"/>
      <path id="path47" fill="#fff" fill-rule="evenodd" stroke-width="10.1" d="M432.8 253.2v.5h-.7v-.6-.2h.3c.2 0 .3.3.4.4" overflow="visible" color="#000"/>
      <g id="g73" fill="none" fill-rule="evenodd" stroke="#000" stroke-width=".3" stroke-dasharray=".9 .9" opacity=".5">
        <path id="path49" d="M445.5 260.5c-2.8-1-6 0-9 .5-9.4 2.2-18.8 5.2-28 8.3-5 1.3-10 2.4-15 4.3-7.6 3-16 3.8-23 8-1.4.8-2.6 1.8-3.7 2.8"/>
        <path id="path51" d="M459.5 276.3c-2.3-.2-4.5.2-6.6 1-5 2.2-9.8 4.3-15 5.3-6 1.2-12 1.6-18 .3l-4.3-1"/>
        <path id="path53" d="M469.2 279.8c-3.4-.3-6.2 2-9 3.3-9.7 5.5-20.3 9-31.3 10-8 1-16 0-23.4-3.2l-7-3"/>
        <path id="path55" d="M461 277c-5 0-9.4 3-14 4.5-7.5 2.8-15.4 4.8-23.3 4.3-4-.4-8-1.7-11.8-2.7"/>
        <path id="path57" d="M463.2 277.7c-2.6-.2-5 1-7.6 2-8.4 4-17.4 7-26.8 7.8-7 .6-14-1.3-21-3.4"/>
        <path id="path59" d="M465.3 278.5c-4.2-.4-7.8 2.3-11.5 3.7-5 2.2-10 4.4-15.4 5.4-7 1.6-14 2.7-21 1.2-4.3-.7-8.5-2-12.5-3.7"/>
        <path id="path61" d="M467 279.2c-4.2 0-7.8 2.7-11.7 4.3-7 3.3-14.4 6.3-22.2 7.3-7 1-14.4 1.2-21.3-1-3.5-1-6.8-2.5-10-3.8"/>
        <path id="path63" d="M431.6 244.2l1.6 2c.5.8.6 2 1.4 3.2.7 1 2 2.4 3 4 1 1.4 2 3 2.3 3.8l1.3 3"/>
        <path id="path65" d="M366 260.6c3-1 5.6-3.5 8.7-4.8 3.6-1.5 7.3-2.7 11-4 3.8-.8 7.6-2 11-4 4-1 8.2-3 12.6-2.6 3.2 0 6.3-2.6 9.4-1 3 1.3 6.3 0 9.4-.4 2.4-.3 4.7.5 7 .2"/>
        <path id="path67" d="M449.8 271.6s-.7-.6-2.7-.5c-1.8.2-6.4 1.4-10 2.6-3.6 1.2-25.4 8-29 9-3.5 1-10 2.4-13 3.5-3 1-13.4 4.6-16 5.3-2.5.7-7.4 3.6-7.4 3.6"/>
        <path id="path69" d="M431 244.3s1.2 1.2 1.7 2c.5 1 .6 2 1.4 3.2.8 1.2 2.2 2.5 3 4l2.4 3.8 1.4 3"/>
        <path id="path71" d="M449.2 271c-3-1.2-6.3.2-9.3 1-14 4-27.8 8.8-42 12.4-7 2-13.7 4.5-20.7 6.6-2.2 1-4.3 2-6.3 3.4"/>
      </g>
      <circle id="circle7359" cx="382.5" cy="265.3" r="1" fill="none" stroke="#000" stroke-width=".3" opacity=".6"/>
      <path id="path76" fill="none" fill-rule="evenodd" stroke="#000" d="M453.6 274.3c-2.5-.8-5-1.8-7.8-1-7 1-13.3 4-20 5.7-9.7 3-19.4 5.5-29 8.3-3 2 2.6 4 4.3 4.7 7.6 2.8 15.5 4.7 23.5 5.2 7.4 0 14.7-1.7 21.7-3.8 7.3-2.5 14-6.2 21-9.6 2-1.3 5.3-1.2 6.4-.8.3-3.2-4.5-3.3-7-4-4.2-1.5-8.5-3.3-13-4.7"/>
      <path id="path78" fill="none" stroke="#000" d="M417.3 242c4.8-.2 9.6 0 14.4.8 3.6.8 7 3 8.5 6.4 3.2 6 5.5 12.2 8.3 18.3 0 2 3.8 6.7-.2 5.4-8 .6-15.5 4.4-23.3 6.3-14.4 4.4-29.3 7.5-43.2 13.4-3.4.3-7.2 5.2-10 3-1.7-3.4-3-7.2-4.8-10.6-2-4.4-4-9.2-3.5-14.2-.5-3.3-.4-6.8 2-9.6 5-5.3 12.4-7.2 18.8-10.3 10.4-4.8 21.8-6.6 33-9"/>
    </g>
  </g>
  <path fill="#36a" d="M376 432s14.5 10 27.4 8.5c13.3-1.3 15.4-6 32.6 1 17 8 22.2 9.3 38.2 6.6 14.5-2 19.3-6 19.3-6-24 14.7-67.7 20-95 9.4-13-5.3-24.2-17.4-24.2-17.4"/>
  <path fill="url(#ah)" d="M399.3 450.5c36.8 9.5 84.8 1.6 118-28C647.7 305.8 685 364.7 844 347.7v460.6h-959.5V353.5c141.4 116 277.4 1.6 395.3 47 36 13.8 70.3 37.2 119.5 50"/>
  <path fill="#284c9d" d="M334.3 428s44.4 27.6 102.8 38.5c59 11 110-69.7 103-56.8-14 18.2-4 16-13 31.7-6 11-19.3 12.4-23.2 40.2-.6 4-1 8.2-1.2 12.3-.3 38-21.6 38.2-87.7-7-66-45-80-59.7-80-59.7"/>
  <use width="100%" height="100%" xlink:href="#use628" transform="matrix(1.902515,-0.08658803,0.08658803,1.902515,-578.04752,-691.92288)"/>
  <path fill="#246" d="M298.7 408.8c3 1 11.3 6.3 23 7.6 11.5 1.3 26.3-9.4 44.2 4 19 14.3 24 37.7 75 34.2-26.7 6-83.4-12-92-13.8-8.7-2-15.8-.3-24.6-7.3-8.8-7.2-26-24.7-26-24.7"/>
  <path fill="#247" d="M186.4 390.5c4.2-.3 3.3-.4 15-1 11.6-.5 47.2-3.7 72.5 8.8 22 10.7 32 13.4 45 29.4-56.7-24-41.5 2.7-75-8-33-10.7-16-31.2-65-28.7"/>
  <path fill="#246" d="M450.7 456.8c-3.3 3-6.4 7.3-14.5 6.7-8-.5-27.4-3.7-27.4-3.7s30.6 10.4 46.7 14.7c15.8 4.5 27 1 33.4-5.3 6-6.4 5.2-12.7 17-24.3l14-15c-16 13.4-27 21.4-48 20-9-1.3-15-1.3-21.8 5.3"/>
  <path fill="#fff" d="M400.2 521h-.4"/>
  <path fill="#8cd" d="M400.8 520.8v-.3.3m5.2.4v-.3"/>
  <path fill="#48c" d="M438.4 575v.2s-.4 0 0 0"/>
  <path fill="#8cd" d="M438.2 575v.2"/>
  <path fill="#37c" d="M438 575s0 .4 0 0"/>
  <path fill="#48c" d="M442.6 590.6h-.4 1.6"/>
  <path fill="#37c" d="M442 591h-.3"/>
  <path fill="#8cd" d="M445.4 589.8h.4c-.4 0-.4 0 0 0"/>
  <path fill="#fff" d="M497 674.7h-.5"/>
  <path fill="#8cd" d="M497.8 674.6h-.4.4"/>
  <path fill="#37c" d="M417.5 565.5s0 .3 0 0"/>
  <path fill="#8cd" d="M422 564.2v.3"/>
  <path fill="#fff" d="M560.8 725.3s-.4 0 0 0m-35.3-33h-.4 1"/>
  <path fill="#5397d0" d="M411 440.6c-4 2-6 6.4-5.6 7.7.5 1.4-5.5-.7-10.5-3.5-5-2.7-8-6-8-6s6.5 4 11.7 4.6c5.2.5 6.3-1.3 8-2 3-1 3.7-.8 3.7-.8"/>
  <path fill="#2d64b9" d="M530 427.8c-.2-1.7-3-1-3.7-.7-1 1 .5-3 2.3-4 1.8-2 4-3.7 5.2-5.8-1 3-5 7-3.7 9.6 1 1.2 0 1.5 0 1.5"/>
  <path fill="#2c63b8" d="M506 452.8c-.5 4.6 4.5 3 6.5 1.7-7.8 10.4-20.5 16-30 20.4 11.6-7 19.3-15 23.4-22.8"/>
  <path fill="#359" d="M451.8 455.7c-1.6.8-3.5 4.4-7.6 2-4.2-2.2-10.5-1.2-16.2 1-6 2-26.8-.8-36-4.4 16 6.7 37 10.7 43.4 10.3 4.8-.5 8-1 11.3-3 3.3-2.2 3.3-6 3.3-6"/>
  <path fill="#2a5bb0" d="M453.7 472c-4.5-2-7-6.5-6.8-7.8 0-1.3-3-.8-9 1.2-5.2 2-13-1.3-13-1.3 8.7 5 17.7 6 22.5 7.8 3 1 6 .7 6 .7"/>
  <path fill="#5397d0" d="M438 444.2c2.8 2.6 2.3 6.3 1.2 7-1 1 5.4 1.3 11.2 1 5.8-.4 9.7-2 9.7-2s-7 .8-12.2-.4c-5-1.2-5-2.8-6.4-4-2-1.5-3-1.6-3-1.6"/>
  <path fill="#264fa4" d="M-96 394.7s54.8 32 121.2 29c29.3-1.3 176-46.2 188-17.4-22-13-73.2 2-118.7 40.5-88 74.5-152.8 22.4-190.5-52"/>
  <path fill="#254ca1" d="M844 348.5s-31.2 22.2-92 11.4c-21.2-4-123.6-24-166.5 27 98-83 203.5 73 258.5-39"/>
  <use width="100%" height="100%" xlink:href="#aq" transform="matrix(1.94,0,0,2.07,-558.61,-836.42)"/>
  <use xlink:href="#aq"/>
  <use width="100%" height="100%" xlink:href="#aq" transform="matrix(0.85,0,0,0.85,11.33,52.12)"/>
  <use xlink:href="#as"/>
  <use xlink:href="#as" transform="matrix(0.58,0,0,0.58,164.40,221.27)"/>
  <use xlink:href="#aq" transform="matrix(1.73,-0.15,0.15,1.73,-601.24,-644.48)"/>
  <use xlink:href="#aq" transform="translate(-73.54,-152.97)"/>
  <use xlink:href="#aq" transform="translate(-169.48,-206.99)"/>
  <use xlink:href="#aq" transform="matrix(0.48,0.2,-0.2,0.48,251.140,-22.560)"/>
  <use xlink:href="#aq" transform="matrix(-0.69,0.93,0.9,0.58,253.395,-498.045)"/>
  <use xlink:href="#aq" transform="matrix(1.04,-0.06,0.06,0.99,-354.689,-259.291)"/>
  <use xlink:href="#aq" transform="matrix(2.72,0,0,2.72,-1031.76,-1364.10)"/>
  <use xlink:href="#as" transform="matrix(0.34,0,0,0.34,326.611,298.942)"/>
  <use xlink:href="#as" transform="matrix(0.2,0,0,0.17,418.220,372.266)"/>
  <use xlink:href="#as" transform="matrix(0.63,0.21,-0.22,0.6,246.730,101.404)"/>
  <use xlink:href="#as" transform="matrix(-0.73,-0.16,-0.17,0.62,606.004,168.425)"/>
  <use xlink:href="#as" transform="matrix(0.44,-0.01,0.00,0.43,229.53,264.85)"/>
  <use xlink:href="#at"/>
  <use xlink:href="#at" transform="matrix(-0.67,0.11,-0.11,-0.67,491.70,683.04)"/>
  <use xlink:href="#at" transform="matrix(-0.88,-0.47,-0.54,0.74,788.72,246.78)"/>
  <use xlink:href="#at" transform="matrix(-0.21,0,0,0.20,283.18,311.21)"/>
  <use xlink:href="#at" transform="matrix(0.12,0,0,0.11,185.14,346.26)"/>
  <use xlink:href="#at" transform="matrix(-0.64,-0.12,-0.13,0.47,635.604,286.255)"/>
  <use xlink:href="#at" transform="matrix(-0.91,0.08,-0.01,-0.77,703.39,754.67)"/>
  <use xlink:href="#au" transform="translate(-1.812,1.547)"/>
  <use xlink:href="#au" transform="matrix(0.6,0.24,-0.24,0.6,367.151,160.077)"/>
  <use xlink:href="#au" transform="matrix(-0.32,0.06,-0.06,-0.32,645.407,560.051)"/>
  <use xlink:href="#au" transform="matrix(0.29,0.13,-0.13,0.29,353.051,348.988)"/>
  <use width="100%" height="100%" xlink:href="#use628" transform="matrix(1.4161037,0.18246991,-0.18246991,1.4161037,-191.81741,-422.15853)"/>
  <use xlink:href="#au" transform="matrix(0.41,0.01,-0.01,0.41,289.685,410.059)"/>
  <use xlink:href="#au" transform="matrix(-0.78,0.17,-0.17,-0.78,842.824,866.365)"/>
  <use xlink:href="#au" transform="matrix(0.28,0.39,-0.39,0.28,607.542,407.518)"/>
  <use xlink:href="#au" transform="matrix(0.353,0,0,0.353,251.934,315.636)"/>
  <use width="100%" height="100%" xlink:href="#use628" transform="translate(-105.502,-100.803)"/>
  <use xlink:href="#au" transform="matrix(0.27,0.05,-0.05,0.27,342.194,416.561)"/>
  <use xlink:href="#use628"/>
  <use width="100%" height="100%" xlink:href="#use628" transform="matrix(0.76055078,-0.28346069,0.28346069,0.76055078,-108.72656,293.80023)"/>
  <use width="100%" height="100%" xlink:href="#use628" transform="matrix(0.57083136,0,0,0.57083136,126.86759,185.74151)"/>
  <use width="100%" height="100%" xlink:href="#use628" transform="matrix(0.53391363,0,0,0.53391363,222.58271,187.19368)"/>
  <use width="100%" height="100%" xlink:href="#use628" transform="matrix(0.58584237,0,0,0.58584237,122.51225,147.2537)"/>
  <use width="100%" height="100%" xlink:href="#use628" transform="matrix(0.74058258,0,0,0.74058258,33.97622,24.641874)"/>
  <use width="100%" height="100%" xlink:href="#use628" transform="matrix(-1.7610071,0.28477608,0.26708514,1.6516095,1146.0233,-724.98182)"/>
  <use width="100%" height="100%" xlink:href="#use628" transform="matrix(-0.57538424,-0.17621233,0.17621233,-0.57538424,493.59888,887.96192)"/>
  <use width="100%" height="100%" xlink:href="#use628" transform="matrix(-0.34955641,-0.07735455,0.09366335,-0.28869111,342.85302,622.21069)"/>
  <use width="100%" height="100%" xlink:href="#use628" transform="matrix(-0.24318649,0,0,-0.24318649,335.39686,548.32715)"/>
  <use width="100%" height="100%" xlink:href="#use628" transform="matrix(-0.69027706,0.03147411,-0.03147411,-0.69027706,763.61094,872.84801)"/>
  <use width="100%" height="100%" xlink:href="#use628" transform="matrix(-0.51657915,-0.22108537,0.22108537,-0.51657915,648.36399,885.26519)"/>
  <use width="100%" height="100%" xlink:href="#use628" transform="matrix(-0.25832666,0.27242715,-0.27242715,-0.25832666,837.39117,453.8973)"/>
  <g id="at">
    <path fill="#93b5e3" d="M226.2 406.3c3 8.4 8.2 3.2 22.3 10.7 14 7.5 23.2.7 24-8 .8-8.5-8-15.5-21.2-16.5-13.3-1-28.2 5.4-25 13.8z"/>
    <path fill="#306ca8" d="M248 410.6c-12.7-.8-25-12.7-22-4.2 3.2 8.4 8.3 3.2 22.4 10.7 14 8 23.2 1 24-7.2.8-8.6-11.6 2-24.4 1.2"/>
    <path fill="#bed4ef" d="M226.5 401c-.6 1.3-1 2.5-.7 3.8 6 3.3 9 8 19.7 7 10.6-.8 23.6-3.3 27-2V406c-8.8-2-14 1.3-23 1.7-9.4.3-16.5-1.4-22.7-7"/>
    <path fill="#d3ecf3" d="M226.5 401c-.6 1.3-1 2.5-.7 3.8 6 3.3 13.8 6.5 24.4 5.7 10.6-1 19-2 22.4-.7v-3.5c-8.8-2-14 1.3-23 1.7-9.4.4-16.5-1.3-22.7-7"/>
    <path fill="#9abbe6" d="M231.6 396.4c-6 3.3-6 7-5.8 8.4 6 3.3 14 4.5 24.6 3.7 10.6-1 18.6 0 22 1.3v-3.5c-23.6 7-28-17.6-40.8-9.8"/>
    <path fill="#6196d8" d="M231.6 396.4c-6 3.3-6 7-5.8 8.4 6 3.3 14 4.5 24.6 3.7 10.6-1 18.6 0 22 1.3v-3.5c-9-2-14.6 1-24 1.4-9.4.4-23-5.5-16.8-11.2"/>
    <path fill="#95c1e4" d="M226.5 401c-.6 1.3-1 2.5-.7 3.8 6 3.3 14 4.5 24.8 3.7 10.6-1 18.7 0 22 1.2V406c-8.7-2-13.8 1.4-23 1.8-9.3.4-16.4-1.3-22.6-7"/>
    <path fill="#fff" d="M254.3 399c-1.6-1-4-1-4.3 0-.6 1 .5 2.3 2.3 3 2 1 4 1 4.5 0 .5-.8-.5-2.3-2.4-3"/>
    <path fill="#d3ecf3" d="M258 412c-5.3 1.2-10 2.2-20.5.2 12 3 16 5.7 23 5.5 7.2-.2 9.7-5.2 9.7-5.2-2-.7-7.2-1.4-12.4-.4"/>
    <path fill="url(#M)" d="M258 412c-5.3 1.2-10 2.2-20.5.2 12 3 15.8 4 23 3.8 7-.2 9.7-3.6 9.7-3.6-2-.7-7-1.4-12.4-.4"/>
    <path fill="#aadce9" d="M232.4 396.8c-.7.3-2 4 .8 6.3s9.5 4 12.7 4c-12-2-10-12-14-10"/>
    <path fill="#95d2e1" d="M253.8 396c-7.6-3.6-14.8-1.5-13.5-2 10.4-4 26.8 1.6 30.8 10.6 1 .8-2.2-.8-7 .4-5 1.2-1.8-5-9.4-8.8"/>
    <path fill="#fff" d="M265 403.6s-.7-4.3-6.3-7c-5.8-3-10.4-3.2-8.8-3.3 1 0 10 2.7 15 6.7 4 4 3 4 2 5.3h-2"/>
  </g>
  <use xlink:href="#au" transform="matrix(0.26,-0.67,0.67,0.26,-102.100,522.075)"/>
  <g id="aq">
    <path fill="url(#k)" d="M569.8 719.6c3 .3 5.3 2.6 2.8 4.6-2.5 2-2.7.5-7.6 2-5 1.2-5.7-1-4-3 1.7-2 5.7-3.7 8.8-3.5"/>
    <path fill="url(#l)" d="M566.6 724.4c3.3.3 8.7-2.2 6.2-.2-2.5 2-2.7.5-7.6 2-5 1.2-5.7-1-4-3 1.7-2 2.3 1 5.4 1.3"/>
    <path fill="url(#m)" d="M573.7 722.8c0 .3-.4.7-.6 1-2 .6-3.2 1.7-6 1-2-.7-5-2-6-1.7h1c2.8 0 3 1 5 1.4s4 .4 7-1"/>
    <path fill="url(#n)" d="M573.7 722.8c0 .3-.4.7-.6 1-2 .6-4 1-7 .4-2-.7-4-1.3-5-1l1-1c3 0 3 1 5 1.6 2.7.5 4.7.4 7-.8"/>
    <path fill="url(#o)" d="M573.6 721.4c.7 1 0 2-.5 2.4-2 .6-4 .6-6 0s-4.2-1-5.2-.7h.8c4 2.7 10.6-3.4 12-1"/>
    <path fill="url(#p)" d="M573.6 721.4c.7 1 0 2-.5 2.4-2 .6-4 .6-6 0s-4.2-1-5.2-.7h.8c2.6 0 3.4 1 5.4 1.2 2.2.5 6.7-.4 6.3-2"/>
    <path fill="url(#q)" d="M573.7 722.8c0 .3-.4.7-.6 1-2 .6-4 .6-6 0s-4.2-1-5.2-.7h.8c2.6 0 3 1 5.3 1.4 2 .5 4 .4 7-1"/>
    <path fill="#fff" d="M567.5 721h1c0 .5-.5 1-1.2 1-1.6 0-1.6 0-1.6-.3v-.7"/>
    <path fill="url(#r)" d="M564 724.4c1 .5 1.8 1 4.7 1-3.5.2-5 .6-6.6.3-1-.4-1-1.7-1-1.7 1 0 2 0 3 .4"/>
    <path fill="url(#s)" d="M564 724.4c1 .5 1.8 1 4.7 1-3.5.2-4.6.2-6.3 0-1.7-.5-1.4-1.4-1.4-1.4.6 0 2 0 3 .4"/>
    <path fill="url(#t)" d="M573.3 721.5s-.4 1-1.6 1.6c-1.3 1-3.3 1-4 1 3.3 0 4.8-3 5.4-2"/>
    <path fill="#fff" d="M564 721.8s1-1 3.3-1.3c2-.7 3.3-.5 2.8-.7 0 0-2.2 0-4 1-2 .8-1.7.8-1.7 1h.5"/>
  </g>
  <g id="as">
    <path fill="#d0e0f3" d="M335.5 476.7c-7 5.4-7 1.3-20 4.8-13 3.6-15-2-10.6-8 4-5.6 14-9.8 23-9 8 1 14 6.8 7 12.2z"/>
    <path fill="#264cab" d="M319.3 477.2c8.4 1 23-5.8 16.2-.4-6.8 5.4-7 1.3-20 4.8-13 3.6-14.8-2-10.5-8 4.3-5.6 6 3 14.4 3.7"/>
    <path fill="#d0e0f3" d="M338.2 473c-.2 1-.8 1.8-1.7 2.7-5.7 1.6-10.4 4.4-16.4 2.7-6-1.8-12-5-15-4.5.5-1 1.3-2 2-3 6.7-.4 7.8 2.3 13.5 3.6 5.4 1.3 11 1 18-2"/>
    <path fill="#415ea7" d="M338.2 473c-.2 1-.8 1.8-1.7 2.7-5.7 1.6-12.4 3-18.6 1.2-7-2-11-4-14-3l2-3c6.5-.4 8 2.3 13.3 3.6 5.3 1.3 11 1 18-2"/>
    <path fill="#5d93d7" d="M337.8 469.4c2 3-.4 5.5-1.2 6.3-5.7 1.6-11.5 1.5-17.6-.2-6.2-1.7-11.6-2-14.5-1.5.5-.8 1.3-1.6 2-2.4 10.6 7.5 27.5-8.8 31-2"/>
    <path fill="#bcd3ee" d="M337.8 469.4c2 3-.4 5.5-1.2 6.3-5.7 1.6-11.5 1.5-17.6-.2-6.2-1.7-11.6-2-14.5-1.5.5-.8 1.3-1.6 2-2.4 6.7-.3 8.4 2.3 14 3.6 5.8 1.3 17.5-1 17-5.7"/>
    <path fill="#397bce" d="M338.2 473c-.2 1-.8 1.8-1.7 2.7-5.7 1.6-11.5 1.5-17.6-.2-7-1.7-12-2-15-1.5l2-2.4c6.5-.3 8 2.4 13.3 3.7 5.6 1.3 11 1 18-2"/>
    <path fill="#fff" d="M322.2 468.5c1.6-.4 2.8 0 2.5.5 0 .8-1.6 1.6-3.3 2-1.6.3-3 0-2.8-.6 0-.7 1.6-1.3 3.3-2"/>
    <path fill="#b9e1eb" d="M312.3 477c2.7 1.4 5 2.6 12.5 2.4-9.3.7-13.3 2-17.6 1-4.3-.8-3-4.6-3-4.6 1.6-.3 5.2-.3 7.8 1"/>
    <path fill="#3252a0" d="M312.3 477c2.7 1.4 5 2.6 12.5 2.4-9.3.7-12.3 1-16.6 0-4.3-1-4-3.5-4-3.5 1.6-1 5.2-1 7.8 1"/>
    <path fill="#8cd" d="M337 469.5c.2.3-1 2.8-4 4-3 1.4-8.3 1.8-10.4 1.5 8.7-.6 13-7.3 14.4-5.5"/>
    <path fill="#fff" d="M312.7 470.7s3.3-3 8-4.3c5.4-1.3 8.2-1 7.7-1.3-.8 0-7.4 0-13 3-5.2 2-4.7 2.7-4 3 0 .4 0 0 0 0"/>
  </g>
</svg>
