<svg height="800" id="svg727" width="800" xmlns="http://www.w3.org/2000/svg" xmlns:xlink="http://www.w3.org/1999/xlink"><style>#ente{transform:translate3d(0,0,0) translateY(4%) rotate(0deg);transform-origin:50% 50%;animation:x 1.5s ease-in-out alternate infinite}#cap{transform:translate3d(0,0,0) rotate(0deg);transform-origin:20% 50%;animation:y 1.5s ease-in-out alternate infinite}@keyframes y{from{transform:translate3d(0,0,0) rotate(0deg);transform-origin:20% 50%}to{transform:translate3d(0,0,0) rotate(-0.5deg);transform-origin:20% 50%}}@keyframes x{from{transform:translate3d(0,0,0) translateY(4%) rotate(0deg);transform-origin:50% 50%}to{transform:translate3d(0,0,0) translateY(2%) rotate(-2deg);transform-origin:50% 50%}}</style><defs id="defs145"><linearGradient gradientTransform="matrix(36 571 689 -29 342 408)" gradientUnits="userSpaceOnUse" id="ah" x2="1"><stop id="stop4" offset="0" stop-color="#249"/><stop id="stop6" offset=".3" stop-color="#37c"/><stop id="stop8" offset=".6" stop-color="#48c"/><stop id="stop10" offset=".8" stop-color="#8cd"/><stop id="stop12" offset="1" stop-color="#fff"/></linearGradient><radialGradient cx="0" cy="0" fx="0" fy="0" gradientTransform="matrix(635 0 0 635 391 295)" gradientUnits="userSpaceOnUse" id="Q" r="1" spreadMethod="pad"><stop id="stop15" offset="0" stop-color="#fff"/><stop id="stop17" offset=".3" stop-color="#eee"/><stop id="stop19" offset=".8" stop-color="#cde"/><stop id="stop21" offset="1" stop-color="#fff"/></radialGradient><linearGradient gradientTransform="matrix(-30 -244 -294 25 296 428)" gradientUnits="userSpaceOnUse" id="U" x2="1"><stop id="stop24" offset="0" stop-color="#7bd"/><stop id="stop26" offset="1" stop-color="#fff"/></linearGradient><linearGradient gradientTransform="matrix(23 -156 -188 -19 231 442)" gradientUnits="userSpaceOnUse" id="V" x2="1"><stop id="stop29" offset="0" stop-color="#7bd"/><stop id="stop31" offset="1" stop-color="#fff"/></linearGradient><linearGradient gradientTransform="matrix(-81 -65 -78 67 326 411)" gradientUnits="userSpaceOnUse" id="Y" x2="1"><stop id="stop34" offset="0" stop-color="#7bd"/><stop id="stop36" offset="1" stop-color="#fff"/></linearGradient><linearGradient gradientTransform="matrix(-501 143 172 415 846 323)" gradientUnits="userSpaceOnUse" id="Z" x2="1"><stop id="stop39" offset="0" stop-color="#7bd"/><stop id="stop41" offset="1" stop-color="#fff"/></linearGradient><linearGradient gradientTransform="matrix(-8 -207 -250 7 55 447)" gradientUnits="userSpaceOnUse" id="aa" x2="1"><stop id="stop44" offset="0" stop-color="#369"/><stop id="stop46" offset="1" stop-color="#8cd"/></linearGradient><linearGradient gradientTransform="matrix(-279 -53 -64 231 112 402)" gradientUnits="userSpaceOnUse" id="ab" x2="1"><stop id="stop49" offset="0" stop-color="#7bd"/><stop id="stop51" offset="1" stop-color="#fff"/></linearGradient><radialGradient cx="0" cy="0" fx="0" fy="0" gradientTransform="matrix(22 0 0 18 262 418)" gradientUnits="userSpaceOnUse" id="M" r="1" spreadMethod="pad"><stop id="stop54" offset="0" stop-color="#8cd"/><stop id="stop56" offset="1" stop-color="#249"/></radialGradient><radialGradient cx="0" cy="0" fx="0" fy="0" gradientTransform="matrix(4 0 0 3 522 641)" gradientUnits="userSpaceOnUse" id="f" r="1" spreadMethod="pad"><stop id="stop59" offset="0" stop-color="#fff"/><stop id="stop61" offset="1" stop-color="#37c"/></radialGradient><radialGradient cx="0" cy="0" fx="0" fy="0" gradientTransform="matrix(8 0 0 7 567 722)" gradientUnits="userSpaceOnUse" id="k" r="1" spreadMethod="pad"><stop id="stop64" offset="0" stop-color="#fff"/><stop id="stop66" offset="1" stop-color="#37c"/></radialGradient><linearGradient gradientTransform="matrix(2 -4 -4 -2 564 726)" gradientUnits="userSpaceOnUse" id="l" x2="1"><stop id="stop69" offset="0" stop-color="#249"/><stop id="stop71" offset="1" stop-color="#fff"/></linearGradient><radialGradient cx="0" cy="0" fx="0" fy="0" gradientTransform="matrix(7 0 0 6 568 724)" gradientUnits="userSpaceOnUse" id="m" r="1" spreadMethod="pad"><stop id="stop74" offset="0" stop-color="#fff"/><stop id="stop76" offset="1" stop-color="#37c"/></radialGradient><radialGradient cx="0" cy="0" fx="0" fy="0" gradientTransform="matrix(8 0 0 7 569 723)" gradientUnits="userSpaceOnUse" id="n" r="1" spreadMethod="pad"><stop id="stop79" offset="0" stop-color="#fff"/><stop id="stop81" offset="1" stop-color="#37c"/></radialGradient><radialGradient cx="0" cy="0" fx="0" fy="0" gradientTransform="matrix(9 0 0 7 565 721)" gradientUnits="userSpaceOnUse" id="o" r="1" spreadMethod="pad"><stop id="stop84" offset="0" stop-color="#fff"/><stop id="stop86" offset="1" stop-color="#37c"/></radialGradient><radialGradient cx="0" cy="0" fx="0" fy="0" gradientTransform="matrix(3 0 0 2 568 724)" gradientUnits="userSpaceOnUse" id="p" r="1" spreadMethod="pad"><stop id="stop89" offset="0" stop-color="#fff"/><stop id="stop91" offset="1" stop-color="#37c"/></radialGradient><radialGradient cx="0" cy="0" fx="0" fy="0" gradientTransform="matrix(7 0 0 6 566 722)" gradientUnits="userSpaceOnUse" id="q" r="1" spreadMethod="pad"><stop id="stop94" offset="0" stop-color="#fff"/><stop id="stop96" offset="1" stop-color="#37c"/></radialGradient><radialGradient cx="0" cy="0" fx="0" fy="0" gradientTransform="matrix(2 0 0 1 561 725)" gradientUnits="userSpaceOnUse" id="r" r="1" spreadMethod="pad"><stop id="stop99" offset="0" stop-color="#fff"/><stop id="stop101" offset="1" stop-color="#8cd"/></radialGradient><radialGradient cx="0" cy="0" fx="0" fy="0" gradientTransform="matrix(6 0 0 5 561 725)" gradientUnits="userSpaceOnUse" id="s" r="1" spreadMethod="pad"><stop id="stop104" offset="0" stop-color="#8cd"/><stop id="stop106" offset="1" stop-color="#249"/></radialGradient><linearGradient gradientTransform="matrix(-6 -.3 .4 -5 573 722)" gradientUnits="userSpaceOnUse" id="t" x2="1"><stop id="stop109" offset="0" stop-color="#8cd"/><stop id="stop111" offset="1" stop-color="#fff"/></linearGradient><radialGradient cx="0" cy="0" fx="0" fy="0" gradientTransform="matrix(22 0 0 18 338 418)" gradientUnits="userSpaceOnUse" id="P" r="1" spreadMethod="pad"><stop id="stop114" offset="0" stop-color="#fff"/><stop id="stop116" offset="1" stop-color="#bde"/></radialGradient><radialGradient cx="0" cy="0" fx="0" fy="0" gradientTransform="matrix(4 0 0 3 522 641)" gradientUnits="userSpaceOnUse" id="radialGradient43037" r="1" spreadMethod="pad" xlink:href="#f"/><symbol id="use628"><path d="M523.5 649.2c3-1.4 5.3-5.5 2.8-7.8-2.5-2.4-2.7 0-7.6-.7-5-.6-5.7 2.8-4 5.7a7 7 0 0 0 8.8 2.8" fill="#ecf2fa"/><path d="M520.3 642.8c3-1.4 8.7 1 6-1.5-2.5-2.4-2.7 0-7.6-.7-5-.6-5.5 2.8-4 5.7 1.7 3 2.3-2.2 5.4-3.6" fill="#249"/><path d="M527.4 643.2c0-.5-.4-1-.6-1.3-2-1-4-2-6.2 0-2.4 1.2-4.8 4-6 4 .2.2.6 1 1 1 2.3-.6 2.8-2 4.8-3.7 2-1.5 4.2-1.8 6.8-.8" fill="#fff"/><path d="M527.4 643.2c0-.5-.4-1-.6-1.3-2-1-4.6-1-7 1-2.2 1.2-4 3-5 3 .2 0 .5 1 .8 1 2.5-.7 3-2.5 5-3.8a7.5 7.5 0 0 1 7-.7" fill="#b6ceed"/><path d="M527.3 645.4c.7-2 0-3-.5-3.6-2-.3-4.3.3-6.6 2s-4.3 2.4-5.4 2.5c.2.4.5.8.8 1 4-5.4 10.4 2.3 11.7-2" fill="#6196d8"/><path d="M527.3 645.4c.7-2 0-3-.5-3.6-2-.3-4.3.3-6.6 2s-4.3 2.4-5.4 2.5c.2.4.5.8.8 1 2.5-.4 3-2 5.3-3.5 2-1.4 6-1.2 6 1.5" fill="url(#radialGradient43037)"/><path d="M527.4 643.2c0-.5-.4-1-.6-1.3-2-1-4.3 0-6.6 2s-4.3 2-5.4 2c.2.2.5 1 .8 1 2.5-.6 3-2 5-3.7 2.2-1.5 4.2-1.8 7-.8" fill="#d0e0f3"/><path d="M521 647.6c1 0 1.4-.3 1.4-.7 0-2-.6-2-1.3-2h-1 1.8" fill="#fff"/><path d="M517.6 643.6c1-1 2-2 4.7-2.7-3.5 0-5 0-6.6 1-1.7 1-1 3-1 3 .5 0 1.8-1 3-2" fill="#9dd5e3"/><path d="M517.6 643.6c1-1 2-2 4.7-2.7-3.5 0-4.6 0-6.3 1-1.7 1-1.4 2.5-1.4 2.5.6 0 2-.5 3-1.5" fill="#3f6bac"/><path d="M527 645.4a3 3 0 0 0-1.7-2c-1-.5-3 0-4 .3 3.4-.5 5 2.8 5.5 1.6" fill="#9dd5e3"/><path d="M515.8 642.3v-.3.3m2 5s1 1.4 3.4 1.4c1.6.4 3 0 2.5 0-.4.3-3 1-4.8 0-2.8-.7-2-1-2-1l.2-.4" fill="#fff"/></symbol></defs><defs id="d150"><symbol id="au"><path d="M338.5 416.7l-15-7.6 14.5 9-30-4.4 29.2 5.3-13.3 6 13.3-5.5-12.8 23.8 13.3-23.4 2.4 6.3-1.4-6.3 10 9.4-9-10 9 3-8.8-3.6 31.3-7.3-31.5 7 27.6-19.5-28 19 2.4-8.2-3 7.6-8-19" fill="url(#P)"/></symbol></defs><path d="M0 800h800V0H0v800" fill="url(#Q)"/><path d="M844 278.5c-100.2 52.8-144.5 51-219 39-129.8-19-256.8 6-354.7-16.7-97.8-22.8-235 6.2-281.7 12-46.4 5.7-104.2-9.7-104.2-9.7v153c1.8 86 937-88.3 959.5-112v-65" fill="#e0eff7"/><path d="M844 316.8c-108.3 47-141.4 24.7-208.7 12.6-130-23.2-290.5 35.7-388.3 9.8-97.8-26-211.8-27.4-258.4-23-46.4 4.2-104.2 25-104.2 25v51.5c20 22.7 80 36 154 45 141 17 783-42 805.4-65v-56" fill="#7bd"/><path d="M844 326c-108.3 46.7-208.7 19-279.5 13.6-137-10.6-194.3 22-289 26.8-94.6 4.7-84.2-27-213.4 0-129 26.8-177-20-177-20v24.2c12.5 24.7 54.8 61.6 154 73.8 65 8 282 74.2 453 58.6 200-18.3 352-120.4 352-134v-43" fill="#63a9df"/><path d="M538.2 324.5c-23.3-6-145.7 2.5-204.2 9s-91.2-29.7-135.7-34c-44.3-4.2-148 15.4-148 15.4s117.7 2 154.3 21c36.8 19 72.5 27 125.6 18.5 53-8 208-30.6 208-30.6" fill="url(#U)"/><path d="M405.8 337.8c-166.7 13.4-131.5-15.4-205.4-31-31.5-6.6-107.2 5-107.2 5s88.7 2.2 115.2 16c26.5 13.7 54.4 26.2 92.8 22.7s104.6-13 104.6-13" fill="url(#V)"/><path d="M369 353c161.5-26.8 208.2-40.2 292-10.6 0 0-28 11.6-78 5-50-6.4-46.2-16.2-214 5.6" fill="#b2d8ec"/><path d="M345 413.6c-22.6 9.2-37.4-1.4-56.6-9.5-19.2-8-28-10-50.7-13-22.8-3.4-85.8 4-85.8 4s41-12.4 83-12.2c41.4 0 73-9.6 98-14C357.2 364 458 348 486 346c30.7-2.5 64.4 0 93 8-153.5-10.6-300.3 37.7-234.3 59.7" fill="#a6d0e8"/><path d="M298.2 408.4c-23.2-22.7-52.8-18-72.5-21.6 6-.4 28-.5 45.5-2.7s72-13 72-13-36 13.5-40 18.7a25.7 25.7 0 0 0-4.8 19.3" fill="url(#Y)"/><path d="M741.7 417.8c42.8-12.8 47.8-36 67.8-61.3 0 0-34 41.5-70 46.2-36 4.7-66.7 4.5-76 4.8l-9.6.2c21 2.5 68 16 87 10" fill="url(#Z)"/><path d="M206.2 427c-46-33.4-217.3 23-305.6-18.3 29.4 78 191.4 21.4 255.6 14 26.7-3 50 4.2 50 4.2" fill="url(#aa)"/><path d="M261.6 375c-99-1-151.6 24.3-208.6 27-57.3 2.7-116-19-116-19s56.6 6.6 107 1.8c50.5-4.8 84.5-20 217.7-9.4" fill="#7bd"/><path d="M186 375.6S70.8 400.4 42.4 398.8C14 397.2-13.4 391-13.4 391s41.7-2.6 62.2-2c20.6.8 77.8-9 137.2-13.3" fill="url(#ab)"/><path d="M362.7 418.2c-137-38 102.7-72.3 195.2-66.5 21 1.3 51.3 5.8 101.3-1-22 10.8-93.5 12.2-129.5 28.6-55.6 25.5-3 37.4-60.6 42.6-71 6.3-92-20.5-107.5-4" fill="#9fc9db"/><g id="ente"><path color="#000" d="M371.8 298.8c-9.4 19.6-1 44.4 16.5 56.6 9 7-1.7 17.4-10.3 13-13-2.5-27-3-39-9.2-10.6-2.8-12.7-14.8-20.3-21-12-6.4-15.8 10-19.5 17.8-7 14.7-12.2 31-9.3 47.5 2.5 23 20 41.5 40.8 50.2 34 14.5 72.3 15 108.4 9.7 17.2-2.5 36-7 46.8-21.8a47.8 47.8 0 0 0-8-66.7c-8.7-5.8-18.3-11.4-22.7-21.4-2-7.2 8.6-13.8 8.5-22.4 6-25.6-13.8-51.5-38.6-56.7-20.6-5-44.5 4.3-53.4 24.3" fill="#f2c002" fill-rule="evenodd" overflow="visible" stroke-width="4.3"/><path color="#000" d="M469 374.6a1.5 1.5 0 0 0-.8 2.8 45.5 45.5 0 0 1 20 27.6c1.8 10-1 18.8-3.8 25.5a1.5 1.5 0 1 0 2.7 1.2c3-7 6-16.3 4.2-27.2a48.3 48.3 0 0 0-21.4-29.7 1.5 1.5 0 0 0-1-.2zm14 59.4a1.5 1.5 0 0 0-1.3.7c-4 7-8 10-14.5 14.7a1.5 1.5 0 1 0 1.8 2.4c6.4-4.6 11-8 15.3-15.6a1.5 1.5 0 0 0-1.3-2.2z" fill="#fff" font-family="sans-serif" opacity=".5" overflow="visible" solid-color="#000000" stroke-linecap="round" stroke-linejoin="round" stroke-width="3" style="line-height:normal;font-variant-ligatures:normal;font-variant-position:normal;font-variant-caps:normal;font-variant-numeric:normal;font-variant-alternates:normal;font-feature-settings:normal;text-indent:0;text-align:start;text-decoration-line:none;text-decoration-style:solid;text-decoration-color:#000;text-transform:none;text-orientation:mixed;shape-padding:0;isolation:auto;mix-blend-mode:normal" white-space="normal"/><path d="M303.8 345.8a254.5 254.5 0 0 0-8 41.7 61 61 0 0 0 23.5 50.7c9.3 7.4 15 11.6 34.3 23-20.3-5.7-26.6-8-44-20.8a60.7 60.7 0 0 1-20.2-52.2c1.4-14.3 8-28.3 8-28.3 2.5-5.7 5-11.2 6.5-14.2" fill="#e6b100" fill-rule="evenodd" stroke-width="4.4"/><circle color="#000" cx="429" cy="317.8" fill="#da9c16" fill-rule="evenodd" overflow="visible" r="14.2" stroke-width="1.3"/><circle color="#000" cx="427.5" cy="315.9" fill="#393228" fill-rule="evenodd" overflow="visible" r="11.8" stroke-width=".8"/><circle color="#000" cx="424.4" cy="312.4" fill="#fff" fill-rule="evenodd" overflow="visible" r="5.7" stroke-width="3.8"/><path d="M383.3 286.6s-9 8.5-8.8 30.2c.2 21.6 13.8 38.6 13.8 38.6s-14-8.8-19.2-28.4c-3.6-13.8 2.4-27.6 2.4-27.6l12-12.8" fill="#e6b100" fill-rule="evenodd" stroke-width="4.4"/><path color="#000" d="M410.3 273.3c-21.6.8-41.6 18.8-42.3 40.8a49.5 49.5 0 0 0 21.3 42.4c8 8.6-5 16-13 12-12.5-2.7-25.8-3-37.3-9.2-10.6-2.8-12.7-14.8-20.3-21-12-6.4-15.8 10-19.6 17.8-7 14.7-12 31-9 47.5 2.5 23 20 41.5 41 50.2 33.8 14.5 72 15 108.2 9.7 17.2-2.5 36-7 46.8-21.8a47.8 47.8 0 0 0-8-66.7c-8.7-5.8-18.3-11.4-22.7-21.4-2-7.2 8.6-13.8 8.6-22.4 5.7-25.6-14-51.5-38.8-56.7-5-1-10-1.5-15-1.2" fill="none" fill-rule="evenodd" overflow="visible" stroke="#000"/><path color="#000" d="M451.7 329.8c1-2.5 3.7-4 6.2-4.7 1-.5 2.6.5 3.5-.5 1.2-1.2 2-3 3.2-4 2.3 0 4 1.8 5.4 3.2 2 1.5 4.8 1.4 7.2 1.5 3 0 6-.3 8.8 0 1.6 2 .5 5-1 6.7-2.6 3-6.3 5.3-10.4 5.4-1.8.4-3.7-1.5-5.2-1 1 1.4 2.3 2.3 3.4 3.4 1.8 1.7 4 3.2 5.3 5.3 1 1.7-1 3-2.4 3.4a19 19 0 0 1-12-.8c-3.2-1-6-2.7-8-5-3-3.2-5.5-7.8-4-12.3v-.4" fill="#b94519" fill-rule="evenodd" overflow="visible" stroke-width="4.4"/><g fill="none" stroke="#000"><path color="#000" d="M464.8 320.5c2.4 0 4.2 2.2 5.3 3.2 3 2.6 13.3 1 16 1.5 4 5.2-8.2 15-14.8 11.4-3.4-1-1.2.7-.4 1.4 4.4 4.3 9 7 7 9-3.6 4-15 1.8-19.6-2" fill-rule="evenodd" overflow="visible" stroke-linecap="round"/></g><g id="cap"><path d="M417.3 242a56 56 0 0 1 15.8 1.2c1.4.5 3 1.2 3.7 1.7 2 1.3 4.3 5 7.4 12.4l3 6.6 2.4 6c.5 1.8.7 2.6 1.2 3-.3 0-1.7-.2-3.7 0-2.4.4-6.2 1.3-9.5 2.4-3.3 1-4.7 1.6-9.5 3-4.8 1.5-12.3 3.7-17.8 5.2s-10 2.7-14 4a119 119 0 0 0-10.2 3.5c-3.5 1.5-7 3-10.2 4.6l-3 1.2c-.5 0-2-2.8-2.6-5l-1.7-3.8a54.3 54.3 0 0 1-4.7-12.3l-.3-3.2v-3c-.3-3.4-.2-4.7.7-6l1-1.8c.4-1 3-3.2 5.2-4.4 2-1 6.5-3.3 8.8-4l3.8-1.8a82.2 82.2 0 0 1 15.3-5.4l5-1c1.3-.4 4.6-1 7.3-1.6l6-1.2.7-.2" fill="#ff1515" stroke-width="0"/><path d="M462 286.4c1-.5 1.2-.5 2.2-.4 2.8.2 6.6-.4 8.3-1.5.8-.5 1-.8 1-1.5 0-.6-4.7-3.3-4.7-3.3" fill="#281305" stroke="#000"/><path d="M453.6 274.3c-2.4-.7-5-1.8-7.4-1.2-6.7 1.2-13 4-19.4 5.7-10 3-20 5.7-30 8.6-3 2 2.6 4 4.3 4.7a87 87 0 0 0 23.4 5.2c7.5 0 14.7-1.7 21.8-3.8 7.3-2.5 14-6.2 21-9.6a9 9 0 0 1 6.4-.8c.3-3.2-4.8-2.6-7-4-4.3-1.5-8.5-3.3-13-4.7" fill="#ff1515" fill-rule="evenodd" stroke="#000"/><path d="M379.7 253c-.8 2.7-1.4 6 0 8.6 1 1.2 1.4 2.8.3 4-1 2-3 3.6-4 5.8-.6 1.8 1 3.2 2.2 4.4a8 8 0 0 1 1 5.2c-.8 1.7-3 2.7-2.4 4.8.6 1.8 2.7 2.8 3 4.8.3 1.6.5 3.3-1.5 3.6-2 1-3.8 2-6 2.5-1.6-2.8-2.4-6-4-9-1.8-3.3-3.2-7-4.4-10.6-.5-3-.4-6.4-.8-9.6-.3-3.4 2-6.4 4.7-8.3 2.2-2 5-3 7.8-4.4l4-1.6" fill="#e21515"/><path d="M471 281.3h-.6c-2 .5-4.2 2-5.7 2.8a122.6 122.6 0 0 1-23.6 10.4l-9.8 2.4 5.7-1c4.4-1 7.8-1.8 12.6-3.8 4.8-2 10.8-4.7 14-6.5 3-1.7 4.2-2.2 6-2.5 1.6-.4 2.2-.7 3-.4.5.3.8.7.8.7s.4-1 .3-1.5c-.4-.6-.4-.5-.6-.6h-2" fill="#e21515" fill-rule="evenodd" stroke-width="7.9"/><path color="#000" d="M432 249.4c2 0 3.8 1.4 4.8 3.2.8 1.2 1 3 .6 4.3 0 1 1.3 1 2 .5.8-.5 2-1 2-2.2-.6-1 .6-2 1.2-1 .8 1 1 2.3 1.7 3.5l2.6 6c-1.2 2-3.5 3-5.7 3.4-2 .3-4.4.4-6-1a6.2 6.2 0 0 1-3-5.7c0-1 1-2 .4-3s-1.8-1.7-2.2-3c-.7-1.3-1-3.2 0-4.5.4-.4 1-.6 1.4-.6" fill="#f2c802" fill-rule="evenodd" overflow="visible" stroke-width="2.1"/><path color="#000" d="M431.7 252.5c-.5 0-.7.7-.3 1.4.4.6 1 1.2 1.7 1 .6 0 .8-.6.4-1.4 0-.3-.3-.5-.6-.7.2 0 .4.3.5.5.3.6 0 1.2-.3 1.2-.5 0-1-.3-1.4-1-.3-.5-.2-1 .3-1.2h-.2" fill="#da9c16" fill-rule="evenodd" overflow="visible" stroke-width="2.1"/><path color="#000" d="M431.6 253.7c.3.6 1 1 1.3 1 .4 0 .6-.6.3-1.2-.3-.7-1-1-1.4-1-.6 0-.7.6-.4 1.2" fill="#393228" fill-rule="evenodd" overflow="visible" stroke-width="2"/><path color="#000" d="M432 255.3c-.3-.3-.6-.4-.8-.4-.2 0-.4-.2-.5-.3 0-.2-.4 0-.3 0 0 .3-.2.5-.4.5h-.6v.5c.4.4.8.6 1.3.6 0 0 .3-.3.3 0v.5c-.2 0-.2.3 0 .4.2.2.5 0 .7 0 .3 0 .6-.5.6-1 0-.3-.2-.7-.4-1" fill="#b94519" fill-rule="evenodd" overflow="visible" stroke-width="2.1"/><path color="#000" d="M432.8 253.2v.5h-.7v-.8h.3c.2 0 .3.3.4.4" fill="#fff" fill-rule="evenodd" overflow="visible" stroke-width="10.1"/><g fill="none" fill-rule="evenodd" opacity=".5" stroke="#000" stroke-dasharray=".9 .9" stroke-width=".3"><path d="M445.5 260.5c-2.8-1-6 0-9 .5-9.4 2.2-18.8 5.2-28 8.3-5 1.3-10 2.4-15 4.3-7.6 3-16 3.8-23 8-1.4.8-2.6 1.8-3.7 2.8"/><path d="M459.5 276.3c-2.3-.2-4.5.2-6.6 1-5 2.2-9.8 4.3-15 5.3-6 1.2-12 1.6-18 .3l-4.3-1"/><path d="M469.2 279.8c-3.4-.3-6.2 2-9 3.3-9.7 5.5-20.3 9-31.3 10-8 1-16 0-23.4-3.2l-7-3"/><path d="M461 277c-5 0-9.4 3-14 4.5a57 57 0 0 1-23.3 4.3c-4-.4-8-1.7-11.8-2.7"/><path d="M463.2 277.7c-2.6-.2-5 1-7.6 2-8.4 4-17.4 7-26.8 7.8a57 57 0 0 1-21-3.4"/><path d="M465.3 278.5c-4.2-.4-7.8 2.3-11.5 3.7-5 2.2-10 4.4-15.4 5.4a48.2 48.2 0 0 1-33.5-2.5"/><path d="M467 279.2c-4.2 0-7.8 2.7-11.7 4.3-7 3.3-14.4 6.3-22.2 7.3a48 48 0 0 1-21.3-1c-3.5-1-6.8-2.5-10-3.8"/><path d="M431.6 244.2l1.6 2c.5.8.6 2 1.4 3.2.7 1 2 2.4 3 4 1 1.4 2 3 2.3 3.8l1.3 3"/><path d="M366 260.6c3-1 5.6-3.5 8.7-4.8 3.6-1.5 7.3-2.7 11-4 3.8-.8 7.6-2 11-4 4-1 8.2-3 12.6-2.6 3.2 0 6.3-2.6 9.4-1 3 1.3 6.3 0 9.4-.4 2.4-.3 4.7.5 7 .2"/><path d="M449.8 271.6s-.7-.6-2.7-.5c-1.8.2-6.4 1.4-10 2.6-3.6 1.2-25.4 8-29 9-3.5 1-10 2.4-13 3.5-3 1-13.4 4.6-16 5.3a46 46 0 0 0-7.4 3.6"/><path d="M431 244.3s1.2 1.2 1.7 2c.5 1 .6 2 1.4 3.2.8 1.2 2.2 2.5 3 4l2.4 3.8 1.4 3"/><path d="M449.2 271c-3-1.2-6.3.2-9.3 1-14 4-27.8 8.8-42 12.4-7 2-13.7 4.5-20.7 6.6-2.2 1-4.3 2-6.3 3.4"/></g><circle cx="382.5" cy="265.3" fill="none" opacity=".6" r="1" stroke="#000" stroke-width=".3"/><path d="M453.6 274.3c-2.5-.8-5-1.8-7.8-1-7 1-13.3 4-20 5.7-9.7 3-19.4 5.5-29 8.3-3 2 2.6 4 4.3 4.7a83.2 83.2 0 0 0 23.5 5.2 76 76 0 0 0 21.7-3.8c7.3-2.5 14-6.2 21-9.6a9 9 0 0 1 6.4-.8c.3-3.2-4.5-3.3-7-4-4.2-1.5-8.5-3.3-13-4.7" fill="none" fill-rule="evenodd" stroke="#000"/><path d="M417.3 242c4.8-.2 9.6 0 14.4.8 3.6.8 7 3 8.5 6.4 3.2 6 5.5 12.2 8.3 18.3 0 2 3.8 6.7-.2 5.4-8 .6-15.5 4.4-23.3 6.3-14.4 4.4-29.3 7.5-43.2 13.4-3.4.3-7.2 5.2-10 3-1.7-3.4-3-7.2-4.8-10.6-2-4.4-4-9.2-3.5-14.2-.5-3.3-.4-6.8 2-9.6 5-5.3 12.4-7.2 18.8-10.3 10.4-4.8 21.8-6.6 33-9" fill="none" stroke="#000"/></g></g><path d="M376 432s14.5 10 27.4 8.5c13.3-1.3 15.4-6 32.6 1 17 8 22.2 9.3 38.2 6.6 14.5-2 19.3-6 19.3-6-24 14.7-67.7 20-95 9.4-13-5.3-24.2-17.4-24.2-17.4" fill="#36a"/><path d="M399.3 450.5c36.8 9.5 84.8 1.6 118-28C647.7 305.8 685 364.7 844 347.7v460.6h-959.5V353.5c141.4 116 277.4 1.6 395.3 47 36 13.8 70.3 37.2 119.5 50" fill="url(#ah)"/><path d="M334.3 428s44.4 27.6 102.8 38.5c59 11 110-69.7 103-56.8-14 18.2-4 16-13 31.7-6 11-19.3 12.4-23.2 40.2-.6 4-1 8.2-1.2 12.3-.3 38-21.6 38.2-87.7-7-66-45-80-59.7-80-59.7" fill="#284c9d"/><use height="100%" transform="matrix(1.90251 -.08659 .08659 1.90251 -578 -692)" width="100%" xlink:href="#use628"/><path d="M298.7 408.8c3 1 11.3 6.3 23 7.6 11.5 1.3 26.3-9.4 44.2 4 19 14.3 24 37.7 75 34.2-26.7 6-83.4-12-92-13.8-8.7-2-15.8-.3-24.6-7.3-8.8-7.2-26-24.7-26-24.7" fill="#246"/><path d="M186.4 390.5c4.2-.3 3.3-.4 15-1 11.6-.5 47.2-3.7 72.5 8.8 22 10.7 32 13.4 45 29.4-56.7-24-41.5 2.7-75-8-33-10.7-16-31.2-65-28.7" fill="#247"/><path d="M450.7 456.8c-3.3 3-6.4 7.3-14.5 6.7-8-.5-27.4-3.7-27.4-3.7s30.6 10.4 46.7 14.7c15.8 4.5 27 1 33.4-5.3 6-6.4 5.2-12.7 17-24.3l14-15c-16 13.4-27 21.4-48 20-9-1.3-15-1.3-21.8 5.3" fill="#246"/><path d="M400.2 521h-.4" fill="#fff"/><path d="M400.8 520.8v-.3.3m5.2.4v-.3" fill="#8cd"/><path d="M438.4 575v.2s-.4 0 0 0" fill="#48c"/><path d="M438.2 575v.2" fill="#8cd"/><path d="M438 575s0 .4 0 0" fill="#37c"/><path d="M442.6 590.6h-.4 1.6" fill="#48c"/><path d="M442 591h-.3" fill="#37c"/><path d="M445.4 589.8h.4c-.4 0-.4 0 0 0" fill="#8cd"/><path d="M497 674.7h-.5" fill="#fff"/><path d="M497.8 674.6h-.4.4" fill="#8cd"/><path d="M417.5 565.5s0 .3 0 0" fill="#37c"/><path d="M422 564.2v.3" fill="#8cd"/><path d="M560.8 725.3s-.4 0 0 0m-35.3-33h-.4 1" fill="#fff"/><path d="M411 440.6c-4 2-6 6.4-5.6 7.7.5 1.4-5.5-.7-10.5-3.5-5-2.7-8-6-8-6s6.5 4 11.7 4.6c5.2.5 6.3-1.3 8-2 3-1 3.7-.8 3.7-.8" fill="#5397d0"/><path d="M530 427.8c-.2-1.7-3-1-3.7-.7-1 1 .5-3 2.3-4 1.8-2 4-3.7 5.2-5.8-1 3-5 7-3.7 9.6 1 1.2 0 1.5 0 1.5" fill="#2d64b9"/><path d="M506 452.8c-.5 4.6 4.5 3 6.5 1.7-7.8 10.4-20.5 16-30 20.4 11.6-7 19.3-15 23.4-22.8" fill="#2c63b8"/><path d="M451.8 455.7c-1.6.8-3.5 4.4-7.6 2-4.2-2.2-10.5-1.2-16.2 1-6 2-26.8-.8-36-4.4 16 6.7 37 10.7 43.4 10.3 4.8-.5 8-1 11.3-3 3.3-2.2 3.3-6 3.3-6" fill="#359"/><path d="M453.7 472c-4.5-2-7-6.5-6.8-7.8 0-1.3-3-.8-9 1.2-5.2 2-13-1.3-13-1.3 8.7 5 17.7 6 22.5 7.8 3 1 6 .7 6 .7" fill="#2a5bb0"/><path d="M438 444.2c2.8 2.6 2.3 6.3 1.2 7-1 1 5.4 1.3 11.2 1 5.8-.4 9.7-2 9.7-2s-7 .8-12.2-.4c-5-1.2-5-2.8-6.4-4-2-1.5-3-1.6-3-1.6" fill="#5397d0"/><path d="M-96 394.7s54.8 32 121.2 29c29.3-1.3 176-46.2 188-17.4-22-13-73.2 2-118.7 40.5-88 74.5-152.8 22.4-190.5-52" fill="#264fa4"/><path d="M844 348.5s-31.2 22.2-92 11.4c-21.2-4-123.6-24-166.5 27 98-83 203.5 73 258.5-39" fill="#254ca1"/><use height="100%" transform="matrix(1.94 0 0 2.07 -558.6 -836.4)" width="100%" xlink:href="#aq"/><use id="use278" xlink:href="#aq"/><use height="100%" transform="matrix(.85 0 0 .85 11.3 52.1)" width="100%" xlink:href="#aq"/><use xlink:href="#as"/><use transform="matrix(.58 0 0 .58 164.4 221.3)" xlink:href="#as"/><use transform="matrix(1.73 -.15 .15 1.73 -601.2 -644.5)" xlink:href="#aq"/><use transform="translate(-73.5 -153)" xlink:href="#aq"/><use transform="translate(-169.5 -207)" xlink:href="#aq"/><use transform="rotate(22.6 182 616.6) scale(.52)" xlink:href="#aq"/><use transform="matrix(-.69 .93 .9 .58 253.4 -498)" xlink:href="#aq"/><use transform="matrix(1.04 -.06 .06 .99 -354.7 -259.3)" xlink:href="#aq"/><use transform="matrix(2.72 0 0 2.72 -1031.8 -1364.1)" xlink:href="#aq"/><use transform="matrix(.34 0 0 .34 326.6 299)" xlink:href="#as"/><use transform="matrix(.2 0 0 .17 418.2 372.3)" xlink:href="#as"/><use transform="matrix(.63 .21 -.22 .6 246.7 101.4)" xlink:href="#as"/><use transform="matrix(-.73 -.16 -.17 .62 606 168.4)" xlink:href="#as"/><use transform="matrix(.44 -.01 0 .43 229.5 264.9)" xlink:href="#as"/><use xlink:href="#at"/><use transform="rotate(170.2 218.2 361.8) scale(.68)" xlink:href="#at"/><use transform="matrix(-.88 -.47 -.54 .74 788.7 246.8)" xlink:href="#at"/><use transform="matrix(-.21 0 0 .2 283.2 311.2)" xlink:href="#at"/><use transform="matrix(.12 0 0 .11 185.1 346.3)" xlink:href="#at"/><use transform="matrix(-.64 -.12 -.13 .47 635.6 286.3)" xlink:href="#at"/><use transform="matrix(-.91 .08 -.01 -.77 703.4 754.7)" xlink:href="#at"/><use transform="translate(-1.8 1.5)" xlink:href="#au"/><use transform="matrix(.6 .24 -.24 .6 367.2 160)" xlink:href="#au"/><use transform="matrix(-.32 .06 -.06 -.32 645.4 560)" xlink:href="#au"/><use transform="matrix(.29 .13 -.13 .29 353 349)" xlink:href="#au"/><use height="100%" transform="rotate(7.3 3194 -1705.9) scale(1.42781)" width="100%" xlink:href="#use628"/><use transform="translate(289.7 410) scale(.41)" xlink:href="#au"/><use transform="rotate(167.2 375.2 479) scale(.8)" xlink:href="#au"/><use transform="rotate(54.3 -93.5 795.7) scale(.48)" xlink:href="#au"/><use transform="matrix(.353 0 0 .353 252 315.6)" xlink:href="#au"/><use height="100%" transform="translate(-105.5 -100.8)" width="100%" xlink:href="#use628"/><use transform="matrix(.27 .05 -.05 .27 342.2 416.6)" xlink:href="#au"/><use xlink:href="#use628"/><use height="100%" transform="scale(.81166) rotate(-20.4 936.9 552.5)" width="100%" xlink:href="#use628"/><use height="100%" transform="translate(126.9 185.7) scale(.57083)" width="100%" xlink:href="#use628"/><use height="100%" transform="matrix(.53391 0 0 .53391 222.6 187.2)" width="100%" xlink:href="#use628"/><use height="100%" transform="translate(122.5 147.3) scale(.58584)" width="100%" xlink:href="#use628"/><use height="100%" transform="matrix(.74058 0 0 .74058 34 24.6)" width="100%" xlink:href="#use628"/><use height="100%" transform="matrix(-1.761 .28478 .26709 1.6516 1146 -725)" width="100%" xlink:href="#use628"/><use height="100%" transform="rotate(-163 313.3 407) scale(.60176)" width="100%" xlink:href="#use628"/><use height="100%" transform="matrix(-.34956 -.07735 .09366 -.2887 342.9 622.2)" width="100%" xlink:href="#use628"/><use height="100%" transform="matrix(-.24319 0 0 -.24319 335.4 548.3)" width="100%" xlink:href="#use628"/><use height="100%" transform="scale(-.691) rotate(-2.6 -28270.4 23617.4)" width="100%" xlink:href="#use628"/><use height="100%" transform="rotate(-156.8 415 376.2) scale(.5619)" width="100%" xlink:href="#use628"/><use height="100%" transform="rotate(133.5 321.1 407) scale(.37543)" width="100%" xlink:href="#use628"/><g id="at"><path d="M226.2 406.3c3 8.4 8.2 3.2 22.3 10.7 14 7.5 23.2.7 24-8 .8-8.5-8-15.5-21.2-16.5-13.3-1-28.2 5.4-25 13.8z" fill="#93b5e3"/><path d="M248 410.6c-12.7-.8-25-12.7-22-4.2 3.2 8.4 8.3 3.2 22.4 10.7 14 8 23.2 1 24-7.2.8-8.6-11.6 2-24.4 1.2" fill="#306ca8"/><path d="M226.5 401c-.6 1.3-1 2.5-.7 3.8 6 3.3 9 8 19.7 7 10.6-.8 23.6-3.3 27-2V406c-8.8-2-14 1.3-23 1.7-9.4.3-16.5-1.4-22.7-7" fill="#bed4ef"/><path d="M226.5 401c-.6 1.3-1 2.5-.7 3.8a42 42 0 0 0 24.4 5.7c10.6-1 19-2 22.4-.7v-3.5c-8.8-2-14 1.3-23 1.7-9.4.4-16.5-1.3-22.7-7" fill="#d3ecf3"/><path d="M231.6 396.4c-6 3.3-6 7-5.8 8.4 6 3.3 14 4.5 24.6 3.7 10.6-1 18.6 0 22 1.3v-3.5c-23.6 7-28-17.6-40.8-9.8" fill="#9abbe6"/><path d="M231.6 396.4c-6 3.3-6 7-5.8 8.4 6 3.3 14 4.5 24.6 3.7 10.6-1 18.6 0 22 1.3v-3.5c-9-2-14.6 1-24 1.4-9.4.4-23-5.5-16.8-11.2" fill="#6196d8"/><path d="M226.5 401c-.6 1.3-1 2.5-.7 3.8 6 3.3 14 4.5 24.8 3.7 10.6-1 18.7 0 22 1.2V406c-8.7-2-13.8 1.4-23 1.8-9.3.4-16.4-1.3-22.6-7" fill="#95c1e4"/><path d="M254.3 399c-1.6-1-4-1-4.3 0-.6 1 .5 2.3 2.3 3 2 1 4 1 4.5 0 .5-.8-.5-2.3-2.4-3" fill="#fff"/><path d="M258 412c-5.3 1.2-10 2.2-20.5.2 12 3 16 5.7 23 5.5 7.2-.2 9.7-5.2 9.7-5.2-2-.7-7.2-1.4-12.4-.4" fill="#d3ecf3"/><path d="M258 412c-5.3 1.2-10 2.2-20.5.2 12 3 15.8 4 23 3.8 7-.2 9.7-3.6 9.7-3.6-2-.7-7-1.4-12.4-.4" fill="url(#M)"/><path d="M232.4 396.8c-.7.3-2 4 .8 6.3s9.5 4 12.7 4c-12-2-10-12-14-10" fill="#aadce9"/><path d="M253.8 396c-7.6-3.6-14.8-1.5-13.5-2 10.4-4 26.8 1.6 30.8 10.6 1 .8-2.2-.8-7 .4-5 1.2-1.8-5-9.4-8.8" fill="#95d2e1"/><path d="M265 403.6s-.7-4.3-6.3-7c-5.8-3-10.4-3.2-8.8-3.3 1 0 10 2.7 15 6.7 4 4 3 4 2 5.3h-2" fill="#fff"/></g><use transform="matrix(.26 -.67 .67 .26 -102.1 522)" xlink:href="#au"/><g id="aq"><path d="M569.8 719.6c3 .3 5.3 2.6 2.8 4.6-2.5 2-2.7.5-7.6 2-5 1.2-5.7-1-4-3 1.7-2 5.7-3.7 8.8-3.5" fill="url(#k)"/><path d="M566.6 724.4c3.3.3 8.7-2.2 6.2-.2-2.5 2-2.7.5-7.6 2-5 1.2-5.7-1-4-3 1.7-2 2.3 1 5.4 1.3" fill="url(#l)"/><path d="M573.7 722.8c0 .3-.4.7-.6 1-2 .6-3.2 1.7-6 1-2-.7-5-2-6-1.7h1c2.8 0 3 1 5 1.4s4 .4 7-1" fill="url(#m)"/><path d="M573.7 722.8c0 .3-.4.7-.6 1-2 .6-4 1-7 .4-2-.7-4-1.3-5-1l1-1c3 0 3 1 5 1.6 2.7.5 4.7.4 7-.8" fill="url(#n)"/><path d="M573.6 721.4c.7 1 0 2-.5 2.4-2 .6-4 .6-6 0s-4.2-1-5.2-.7h.8c4 2.7 10.6-3.4 12-1" fill="url(#o)"/><path d="M573.6 721.4c.7 1 0 2-.5 2.4-2 .6-4 .6-6 0s-4.2-1-5.2-.7h.8c2.6 0 3.4 1 5.4 1.2 2.2.5 6.7-.4 6.3-2" fill="url(#p)"/><path d="M573.7 722.8c0 .3-.4.7-.6 1-2 .6-4 .6-6 0s-4.2-1-5.2-.7h.8c2.6 0 3 1 5.3 1.4 2 .5 4 .4 7-1" fill="url(#q)"/><path d="M567.5 721h1c0 .5-.5 1-1.2 1-1.6 0-1.6 0-1.6-.3v-.7" fill="#fff"/><path d="M564 724.4c1 .5 1.8 1 4.7 1-3.5.2-5 .6-6.6.3-1-.4-1-1.7-1-1.7 1 0 2 0 3 .4" fill="url(#r)"/><path d="M564 724.4c1 .5 1.8 1 4.7 1-3.5.2-4.6.2-6.3 0-1.7-.5-1.4-1.4-1.4-1.4.6 0 2 0 3 .4" fill="url(#s)"/><path d="M573.3 721.5s-.4 1-1.6 1.6c-1.3 1-3.3 1-4 1 3.3 0 4.8-3 5.4-2" fill="url(#t)"/><path d="M564 721.8s1-1 3.3-1.3c2-.7 3.3-.5 2.8-.7 0 0-2.2 0-4 1-2 .8-1.7.8-1.7 1h.5" fill="#fff"/></g><g id="as"><path d="M335.5 476.7c-7 5.4-7 1.3-20 4.8-13 3.6-15-2-10.6-8 4-5.6 14-9.8 23-9 8 1 14 6.8 7 12.2z" fill="#d0e0f3"/><path d="M319.3 477.2c8.4 1 23-5.8 16.2-.4-6.8 5.4-7 1.3-20 4.8-13 3.6-14.8-2-10.5-8 4.3-5.6 6 3 14.4 3.7" fill="#264cab"/><path d="M338.2 473c-.2 1-.8 1.8-1.7 2.7-5.7 1.6-10.4 4.4-16.4 2.7-6-1.8-12-5-15-4.5.5-1 1.3-2 2-3 6.7-.4 7.8 2.3 13.5 3.6 5.4 1.3 11 1 18-2" fill="#d0e0f3"/><path d="M338.2 473c-.2 1-.8 1.8-1.7 2.7-5.7 1.6-12.4 3-18.6 1.2-7-2-11-4-14-3l2-3c6.5-.4 8 2.3 13.3 3.6 5.3 1.3 11 1 18-2" fill="#415ea7"/><path d="M337.8 469.4c2 3-.4 5.5-1.2 6.3a32 32 0 0 1-17.6-.2c-6.2-1.7-11.6-2-14.5-1.5.5-.8 1.3-1.6 2-2.4 10.6 7.5 27.5-8.8 31-2" fill="#5d93d7"/><path d="M337.8 469.4c2 3-.4 5.5-1.2 6.3a32 32 0 0 1-17.6-.2c-6.2-1.7-11.6-2-14.5-1.5.5-.8 1.3-1.6 2-2.4 6.7-.3 8.4 2.3 14 3.6 5.8 1.3 17.5-1 17-5.7" fill="#bcd3ee"/><path d="M338.2 473c-.2 1-.8 1.8-1.7 2.7a32 32 0 0 1-17.6-.2c-7-1.7-12-2-15-1.5l2-2.4c6.5-.3 8 2.4 13.3 3.7 5.6 1.3 11 1 18-2" fill="#397bce"/><path d="M322.2 468.5c1.6-.4 2.8 0 2.5.5 0 .8-1.6 1.6-3.3 2-1.6.3-3 0-2.8-.6 0-.7 1.6-1.3 3.3-2" fill="#fff"/><path d="M312.3 477c2.7 1.4 5 2.6 12.5 2.4-9.3.7-13.3 2-17.6 1-4.3-.8-3-4.6-3-4.6 1.6-.3 5.2-.3 7.8 1" fill="#b9e1eb"/><path d="M312.3 477c2.7 1.4 5 2.6 12.5 2.4-9.3.7-12.3 1-16.6 0-4.3-1-4-3.5-4-3.5 1.6-1 5.2-1 7.8 1" fill="#3252a0"/><path d="M337 469.5c.2.3-1 2.8-4 4-3 1.4-8.3 1.8-10.4 1.5 8.7-.6 13-7.3 14.4-5.5" fill="#8cd"/><path d="M312.7 470.7s3.3-3 8-4.3c5.4-1.3 8.2-1 7.7-1.3-.8 0-7.4 0-13 3-5.2 2-4.7 2.7-4 3 0 .4 0 0 0 0" fill="#fff"/></g></svg>