<svg xmlns="http://www.w3.org/2000/svg" viewBox="0 0 256 144"><path fill="red" d="M0 0h256v144H0V0z"/><path fill="#FFF" d="M47.5 97c-36.5 0-36.8-54.2 0-53.8h161c36.5 0 37 53.7.2 53.7L47.5 97zm0-47.2c-28.2 0-28.1 40.9.2 40.7h160.8c28.1 0 28.1-40.4 0-40.4l-161-.3zm81 21.9c0-1.5 0-2.5.5-3.3 1.7-1.9 3.5-2 5.4-.2.5.8.5 1.8.5 3.3l-6.4.2zm6.4 5v1c0 4.7-6.6 5.1-6.6.1v-3.5H143c0-11.7-20.3-12.7-22.3-1.6-2.2 12 18.1 15 21.7 4h-7.5zm32.3 6h-7.6v-11c0-4-7.1-3.9-7.1 0v11H145V66h7.6v1.8a9.2 9.2 0 0 1 6.3-2.6c2.5 0 8.3 1.7 8.3 8.4v9.1zm-61.8-.2H98v-11c0-4-7.1-3.9-7.1 0v11h-7.7V66H91v1.8a9.6 9.6 0 0 1 6.2-2.6c2.6-.1 8.4 1.6 8.3 8.3l-.1 9zm78.3-25h7.5v25.2h-7.6v-1a9 9 0 0 1-13.9-7.7c0-4.5 4.2-9.2 9.7-8.8 1.8.1 3 .8 4.3 1.5v-9.2zm0 16.7v-3c0-4.1-6-4.5-6-.3v6c0 1.7 1.3 3 3 3s3-1.3 3-3v-2.7zm24 3.5c0 4.9-6 4.9-6 0v-7.2c0-4.7 6-4.8 6 0v7.2zm-3 6c13.9 0 14.1-18.7.2-18.9-13.9-.2-14.3 18.9-.2 18.9zM71.6 62.4v-5h7.7v5h-7.7zm0 20.2v-17h7.7v17h-7.7zm38.2 0V66h-4v-2.6h4V60h7.6v3.4h4V66h-4v16.7l-7.6-.1zm-69 0V57.4h7.8l11 17.6V57.4H67v25.3h-7.8L48.4 65v17.7l-7.6-.1z"/><circle cx="217.1" cy="61.6" r="3.9" fill="#FFF"/><circle cx="217.1" cy="61.6" r="3.2" fill="red"/><text fill="#FFF" font-family="Tahoma" font-size="6" transform="translate(215.3 63.7)">R</text></svg>