<svg xmlns="http://www.w3.org/2000/svg" preserveAspectRatio="xMidYMid slice" viewBox="0 0 256 144"><path fill="red" d="M0 0h256v144H0z"/><path fill="#fff" d="M47.5 97C30.5 97 19 84.7 19 70c0-14.6 11.4-27 28.5-26.8h161c17 0 28.6 12.2 28.6 27 0 14.6-11.3 26.7-28.4 26.7zm0-47.2c-13.5 0-21.8 9-21.8 20.3 0 11.4 8.3 20.5 22 20.4h160.8c13.6 0 21.8-9 21.8-20.2 0-11-8.3-20.2-21.8-20.2zm81 21.9c0-1.5 0-2.5.5-3.3.6-1 1.7-1.5 2.7-1.5 1 0 2 .3 2.7 1.3.5.8.5 1.8.5 3.3zm6.4 5v1c0 3.2-2.3 3.8-3.4 3.8-1 0-3.2-.6-3.2-3.7v-3.5H143c0-5.2-5.2-9.5-11.4-9.5-6 0-11.2 4.2-11.2 9.4s5 9.5 11.2 9.5c5.2 0 9.5-3 10.8-7zm32.3 6h-7.6v-11c0-1.5-1.4-3-3.5-3-2 0-3.6 1.5-3.6 3v11H145V66h7.6v1.8a9.4 9.4 0 0 1 6.3-2.6c2.5 0 8.3 1.7 8.3 8.4zm-61.8-.2H98v-11c0-1.4-1.4-3-3.5-3-2 0-3.6 1.6-3.6 3v11h-7.7V66H91v1.8a9.4 9.4 0 0 1 6.2-2.6c2.6-.1 8.4 1.6 8.3 8.3l-.1 9zm78.3-25h7.5v25.2h-7.6v-1a9 9 0 0 1-13.9-7.7c0-4.5 4.2-9.2 9.7-8.8 1.8.1 3 .8 4.3 1.5zm0 16.7v-3c0-2.6-1.8-3.3-3-3.3s-3 .5-3 3v6c0 2.6 1.8 3.3 3 3.3s3-.7 3-3.3zm24 0v3.5c0 2.7-1.5 3.8-3 3.8s-3-1-3-3.8v-7.2c0-2.6 1.5-3.7 3-3.7s3 1 3 3.7V74zm-3 9.5c6.2 0 11.2-4.3 11.2-9.5 0-5-5-9.4-11-9.4-6.2 0-11.2 4-11.2 9.3 0 5.3 5 9.6 11 9.6zM71.6 62.4v-5h7.7v5zm0 20.2v-17h7.7v17zm38.2 0V66h-4v-2.6h4V60h7.6v3.4h4V66h-4v16.7zm-69 0V57.4h7.8l11 17.6V57.4H67v25.3h-7.8L48.4 65v17.7z"/><circle cx="217.1" cy="61.6" r="3.9" fill="#fff"/><circle cx="217.1" cy="61.6" r="3.2" fill="red"/><text x="214.8" y="63.7" fill="#fff" font-family="sans-serif" font-size="6" font-weight="700">R</text></svg>