<svg xmlns="http://www.w3.org/2000/svg" id="s8" width="256" height="144">
  <rect id="r8" width="256" height="144" x=".2" y=".3" fill="#e60012" ry="0"/>
  <path id="p9" fill="#fff" d="M47.5 97C30.5 97 19 84.7 19 70c0-14.6 11.4-27 28.5-26.8h161c17 0 28.6 12.2 28.6 27 0 14.6-11.3 26.7-28.4 26.7zm0-47.2c-13.5 0-21.8 9-21.8 20.3 0 11.4 8.3 20.5 22 20.4h160.8c13.6 0 21.8-9 21.8-20.2 0-11-8.3-20.2-21.8-20.2zm169.7 9.4c1.2 0 1.8.5 1.8 1.3 0 .6-.4 1-1 1l1 2h-1l-1-1.7h-.5v1.8h-1v-4.4zm-4 2.4c0 2 1.7 3.7 4 3.7 2 0 3.8-1.7 3.8-3.8 0-2.2-1.8-4-4-4-2 0-3.8 1.8-3.8 4zm4 3c-2 0-3.3-1.4-3.3-3 0-2 1.2-3.3 3-3.3 1.7 0 3 1.4 3 3 .2 2-1.2 3.3-2.8 3.3zm-.7-3.4h.5c.6 0 1-.2 1-.7 0-.4-.4-.6-1-.6h-.5zm-88 10.5c0-1.5 0-2.5.5-3.3.6-1 1.7-1.5 2.7-1.5 1 0 2 .3 2.7 1.3.5.8.5 1.8.5 3.3zm6.4 5v1c0 3.2-2.3 3.8-3.4 3.8-1 0-3.2-.6-3.2-3.7v-3.5H143c0-5.2-5.2-9.5-11.4-9.5-6 0-11.2 4.2-11.2 9.4s5 9.5 11.2 9.5c5.2 0 9.5-3 10.8-7zm32.3-3v9h-7.6v-11c0-1.5-1.4-3-3.5-3-2 0-3.6 1.5-3.6 3v11H145V66h7.6v1.8c1.5-1.4 3.6-2.5 6.3-2.6 2.5 0 8.3 1.7 8.3 8.4zm-61.8-.2v9H98v-11c0-1.4-1.4-3-3.5-3-2 0-3.6 1.6-3.6 3v11h-7.7V66H91v1.8c1.4-1.4 3.5-2.5 6.2-2.6 2.6-.2 8.4 1.6 8.3 8.3zm78.3-16h7.5v25.2h-7.6v-1c-3 1.8-6.2 1.8-8.7.6-.7-.3-5.2-2.5-5.2-8.3 0-4.5 4.2-9.3 9.7-8.8 1.8 0 3 .8 4.3 1.5zm0 16.7v-3c0-2.6-1.8-3.3-3-3.3s-3 .5-3 3v6c0 2.6 1.8 3.3 3 3.3s3-.7 3-3.3zm24 0v3.5c0 2.7-1.5 3.8-3 3.8s-3-1-3-3.8v-7.2c0-2.6 1.5-3.7 3-3.7s3 1 3 3.7V74zm-14 0c0 5.2 5 9.5 11 9.5 6.2 0 11.2-4.3 11.2-9.5 0-5-5-9.3-11-9.4-6.2 0-11.2 4-11.2 9.3zM71.6 62.4v-5h7.7v5zm0 20.2v-17h7.7v17zm38.2 0V66h-4v-2.6h4V60h7.6v3.4h4V66h-4v16.7zm-69 0V57.4h7.8l11 17.6V57.4H67v25.3h-7.8L48.4 65v17.7z"/>
</svg>