<svg viewBox="0 0 256 144" xmlns="http://www.w3.org/2000/svg"><path d="M0 0h256v144H0V0z" fill="#223"/><path d="M38.7 27.6c2.6-1-1.5 6.1-1.5 6.6 0 5.8 1.8 3.5 7.6 4.6a33 33 0 0 1 25.1 20.1c4.3 11.4 1.1 22.8-5.1 32.6-3.3 5.1-7 10.1-11.6 14.1-.9.8-12.7 8.9-12.9 7.3-.3-2.8 4.4-5.9 3.4-8.7-1.3-3.5-7-1.6-10.5-2.3a32.1 32.1 0 0 1-23.1-20.4C2 59.8 20.6 37.4 38.7 27.6zM28 73.8c4.6 16 29.9 8 23.6-7.8-5.5-14-27.9-7.4-23.6 7.8z" fill="#E52"/><path d="M191.8 82.5c0 6.9-3.1 12.4-10.2 14-3.3.8-6.8.9-10.1.5-2-.3-9-1.2-9.3-3.5-.1-1.1 1.3-3 1.7-3.9 1.2-2.5 2.4-1.2 4.7-.4 3 1 7 1.6 9.9.3 3.1-1.3 3.8-4.2 3.8-7.3a12 12 0 0 1-15.1 2.6c-5.8-2.9-7-10.2-5.8-16 1.3-6.3 7.3-9 13.2-9h6c1.7 0 2.3.6 3.6 1.7 2.2-1.4 4.5-3.7 7-4.4 1.5-.1.6 22.8.6 25.4zm48.7-10.1v15.2c0 .5-.3 1-1 1h-8c-.5 0-1-.3-1-.8V73.5c0-1.3-.2-2.8-1.2-3.7-1.7-1.7-4.9-1.2-6 .7-.6 1-.8 2.2-.8 3.4v13.8c0 .4-.3 1-.8 1h-8c-.8 0-1.2-.8-1.2-1.6V61.7c0-.6.4-1 1-1h7.8c.4 0 1 0 1 .6v3.4a13 13 0 0 1 4.6-3.8c1.7-.9 3.6-1 5.6-.7a9 9 0 0 1 5.3 2.6c2.6 2.6 2.7 6.2 2.7 9.6zm-105.4.3c-1.4 1.7-2 4-2 6.3v8.8c0 .5-.5 1-1 1h-8c-.6 0-1-.4-1-1V61.3c0-.6.5-1 1-1h8c.4 0 1 .5 1 1V66c1.7-3.5 4-5.8 6.2-6 2-.1 2.5.5 2.6.8l.1 8.7c0 .7-.7 1-1.3 1-2 0-4.2.6-5.6 2.2m19.8-12.2c1 0 1.3.4 1.3 1.2v26c0 .4-.2 1-.8 1h-8.2c-.6 0-1-.6-1-1V61.4c0-.6.4-1 .8-1l7.9.1z" fill="#FFF"/><circle cx="151.4" cy="51.4" fill="#FFF" r="5.6"/><ellipse cx="176.4" cy="73.1" fill="#223" rx="5.8" ry="5.6"/><ellipse cx="99.2" cy="70.5" fill="#FFF" rx="19.7" ry="18.9"/><text transform="translate(144.9 110.8)"><tspan fill="#FFF" font-family="'Tahoma'" font-size="14.7" x="0" y="0">Powered</tspan><tspan fill="#FFF" font-family="'Tahoma'" font-size="14.7" x="59.6" y="0">by</tspan><tspan fill="#FFF" font-family="'Tahoma'" font-size="14.7" x="78.7" y="0">EA</tspan></text><text fill="#FFF" font-family="'Tahoma'" font-size="6" transform="translate(239.4 60)">TM</text><path d="M206 60.5c1.1 0 1.4.4 1.4 1.2v26c0 .4-.2 1-.8 1h-8.2c-.6 0-1-.6-1-1V61.4c0-.6.4-1 .7-1 .4.1 5.3.2 7.9.1z" fill="#FFF"/><circle cx="202.6" cy="51.4" fill="#FFF" r="5.6"/><ellipse cx="99.2" cy="70.5" fill="#223" rx="10.8" ry="10.7"/></svg>