<svg xmlns="http://www.w3.org/2000/svg" id="svg18" viewBox="0 0 256 144"><style id="s2">.s0{fill:#fff}.s1{fill:#eee}</style><path id="r6" fill="#223" d="M0 0h256v144H0z"/><path id="pK" d="M38.7 27.6c3-1.2-.8 4.7-1.5 6.6-1 2.4-1.8 4.4 1.7 4.2 13.3-.7 26.3 8 31 20.5a33.9 33.9 0 0 1-3 29.2c-6.2 10.3-14.2 20.7-25.4 25-3.2 1.4 1-4.5 1.6-6.5.6-2.6 1.8-4.7-2-4.3-13.3 1.6-26.3-8.2-31-20.7-3.6-9.5-2-20.4 3.2-29a64 64 0 0 1 25.4-25zM28 73.8c2 7 10.2 11 17 8.2 6.5-2.8 9.7-11.4 6-17.6-2.7-4.4-7.8-7-14-6.2-6 .8-11 8.6-9 15.6z" fill="#e52"/><path d="M104.5 80c5-3 6.7-10.5 3.7-15.5-2.9-5-10-5.8-14.7-3a10.5 10.5 0 0 0-5 10.9c1.3 7 10 11.2 16 7.6zm12.3-1.5a19 19 0 0 1-13.9 10.6c-8 1.4-16.7-2-20.9-9.1a18.5 18.5 0 0 1 0-19c4.4-6.8 13-10.5 21-9a20.3 20.3 0 0 1 14.4 11.3 18.6 18.6 0 0 1-.6 15.2z" id="p1" fill="#fff"/><path id="p2" d="M243.4 55.7v.7H242v3.4h-1v-3.4h-1.3v-.7z" class="s0"/><path id="p3" d="M244.2 55.7h1l1.2 1.8 1.2-1.7h1v4h-1v-2.7l-1.3 2-1.3-2v2.7h-.8z" class="s0" fill="#fff"/><path id="p4" d="M170.8 74.4c1 5.3 7.7 4.8 10 2.4 1.8-2 1.8-5.6-.2-7.5a6.1 6.1 0 0 0-5.4-1.6c-1.6.4-5.4 1.5-4.4 6.7zm21 8.1c0 3-.4 6.4-2.2 9-1.6 2.4-4.2 4-7 4.8-3.4 1-7 1-10.7.7-3.3-.3-6.5-1.2-9.2-2.6a1 1 0 0 1-.4-1.3l2.3-4.8c.2-.5 1-.5 1.4-.3 3.3 1.6 6.8 2.3 10.4 2a7 7 0 0 0 4.8-2.4c1.2-1.6 1.3-3.6 1.3-5.5-1.5 1.6-4 5.3-11.4 3.8-7.5-1.5-9.8-6.7-9.8-13.3 0-6.5 2.3-9.5 6.7-11.6 3-1.5 5.6-1.3 6.8-1.3h7.2c.4 0 .5 0 .7.2l1.8 1.5 6-4 1-.4c.2 0 .6.2.6.7z" class="s0" fill="#fff"/><path id="p5" d="M240.5 72.4v15.2c0 .5-.3 1-1 1h-8c-.5 0-1-.3-1-.8V73.5c0-1.3-.2-2.8-1.2-3.7-1.7-1.7-4.9-1.2-6 .7-.6 1-.8 2.2-.8 3.4v13.8c0 .4-.3 1-.8 1h-8c-.8 0-1.2-.8-1.2-1.6V61.7c0-.6.4-1 1-1h7.8c.4 0 1 0 1 .6v3.4c1.2-1.6 2.9-2.9 4.6-3.8 1.7-.9 3.6-1 5.6-.7a9 9 0 0 1 5.3 2.6c1.3 1.3 2 3 2.4 4.8.4 1.8.3 3.4.3 4.8z" class="s0" fill="#fff"/><path id="p6" d="M142 69.5c0 .7-.7 1-1.3 1-2 0-4.2.6-5.6 2.2-1.4 1.7-2 4-2 6.3v8.8c0 .5-.5 1-1 1h-8a1 1 0 0 1-1-1V61.3c0-.6.5-1 1-1h8c.4 0 1 .5 1 1V66c1.7-3.5 4-5.8 6.2-6 2-.1 2.5.5 2.6.8l.1 8.7z" class="s0" fill="#fff"/><path id="p7" d="M207.2 109.3h2.3c.4 0 .8-.5.8-1v-2.8c0-.5 0-1.3-.5-1.4-1-.3-2.2.3-2.6.4zm-1.4-9.3l1.4-.2v3.5c1-.4 2-.5 3-.4 1 .1 1.4.8 1.4 1.7v3.7c0 .8-.5 1.7-1.4 2-1.4.4-3 .2-4.4 0V100" class="s0" fill="#fff"/><path id="p8" d="M147.7 101.6v4h3.3c.8 0 .8-1.4.8-2 0-.7 0-1.8-.7-2-1.2-.2-2.3 0-3.4 0zm2.5-1.3c.8 0 1.8 0 2.3.8.6.8.6 1.8.5 2.6-.1.8 0 1.7-.6 2.3a3 3 0 0 1-2.2.8h-2.7v3.6h-1.2v-10" class="s0" fill="#fff"/><path id="p9" d="M224.7 110.4v-10h6v1H226v3.2h4.4v1.2H226v3.4h4.7v1.3h-6z" class="s0"/><path id="pA" d="M238 106.8l-1.7-5.4-1.8 5.4zm-1-6.5l3.5 10H239l-1-2.3h-4l-.8 2.4h-1.4l3.4-10z" class="s0"/><path id="pB" d="M156 105.5c0 1 0 2.1.2 3 .3 1 1.6 1 2.5.7.8-.3.8-1.6.8-2.3 0-1 0-1.6-.3-2.3-.4-.7-1.4-.8-2.1-.6-.7.2-1.1.8-1.1 1.5zm4 4.3c-.7.6-1.7.8-2.5.8-1 0-2-.4-2.4-1.2-.4-.8-.4-1.8-.4-2.6 0-1-.1-2 .4-2.8 1-1.4 3-1.5 4.4-1 .9.3 1.2 1 1.3 1.8 0 1.8.2 4.3-.8 5z" class="s0" fill="#fff"/><path id="pC" d="M181.4 103h1.2v1l2-1.2.3 1.2-2.2 1.2v5.2h-1.4z" class="s0"/><path id="pD" d="M214 103l1.8 6 2.2-6h1.3l-3.5 10.4h-1.4l1-3h-.6l-2.4-7.4z" class="s0"/><path id="pE" d="M163.3 103l1.4 6 1.8-6h1.6l2 6 1-6h1.4l-1.5 8h-2l-1.7-6.3-1.6 6.3H164l-2-8z" class="s0" fill="#fff"/><path id="pF" d="M195 108.4c0 .4.3.9.7 1 1 .3 2-.3 2.6-.8v-4.4c-.8 0-1.6-.2-2.4 0-.6.1-.9.6-.9.8v3.4zm4.6-8.6v10.6h-1l-.2-.6c-1 .7-2.2 1-3.4.6-.6-.2-1-1-1-1.8v-3.3c0-.8.4-1.7 1.2-2 1.2-.5 2.4-.2 3.4 0V100" class="s0" fill="#fff"/><path id="pG" d="M154.9 60.5c1 0 1.3.4 1.3 1.2v26c0 .4-.2 1-.8 1h-8.2c-.6 0-1-.6-1-1V61.4c0-.6.4-1 .8-1l7.9.1z" class="s0" fill="#fff"/><circle id="pH" cx="151.4" cy="51.4" r="5.6" class="s1"/><g id="g1" transform="translate(52.6 -1) scale(.19795)"><path id="pG8" d="M737 310.8h38.6c5.4 0 7.1 1.6 7.1 6.2v131c0 2.5-1.4 5.3-4.3 5.3h-41.6c-3 0-4.4-2.8-4.4-5.4V316c0-2.8 1.8-5.2 4.6-5.2z" class="s0" fill="#fff"/><circle id="pH3" cx="757.6" cy="265.3" r="28.1" class="s1"/></g><path id="pI" d="M178.2 106.2s0-1.3-.6-1.8c-.5-.3-1.2-.5-2 0-.6.4-.6 1.8-.6 1.8zm1.3 1.2H175c0 .8-.2 1.7.6 2 1 .5 2.2.2 3.3 0v1.2c-1 .4-2.7.8-3.8.2-2-1-1.5-3-1.4-4.8 0-.8.2-1.7.8-2.2.6-.6 1.6-.7 2.6-.7s1.7.5 2.1 1.3c.4.8.3 3 .3 3z" class="s0" fill="#fff"/><path id="pI-3" d="M190.8 106s0-1.4-.6-1.8c-.4-.4-1.2-.5-2 0-.6.4-.5 1.8-.5 1.8zm1.3 1.2h-4.5c0 .8-.1 1.6.6 2 1.1.4 2.2.2 3.3 0v1.2c-1 .4-2.6.7-3.8.2-1.9-1-1.4-3-1.4-4.8 0-.8.3-1.7.8-2.2.7-.6 1.6-.7 2.6-.7s1.7.5 2.1 1.3c.4.8.3 3 .3 3z" class="s0" fill="#fff"/></svg>