<svg xmlns="http://www.w3.org/2000/svg" viewBox="0 0 256 144"><path fill="#223" d="M0 0h256v144H0z"/><path fill="#e52" d="M38.7 27.6c3-1.2-.8 4.7-1.5 6.6-1 2.4-1.8 4.4 1.7 4.2 13.3-.7 26.3 8 31 20.5a33.9 33.9 0 0 1-3 29.2c-6.2 10.3-14.2 20.7-25.4 25-3.2 1.4 1-4.5 1.6-6.5.6-2.6 1.8-4.7-2-4.3-13.3 1.6-26.3-8.2-31-20.7-3.6-9.5-2-20.4 3.2-29a64 64 0 0 1 25.4-25zM28 73.8c2 7 10.2 11 17 8.2 6.5-2.8 9.7-11.4 6-17.6-2.7-4.4-7.8-7-14-6.2-6 .8-11 8.6-9 15.6z"/><path fill="#fff" d="M191.8 82.5c0 3-.4 6.4-2.2 9-1.6 2.4-4.2 4-7 4.8a29.3 29.3 0 0 1-19.9-1.9 1 1 0 0 1-.4-1.3l2.3-4.8c.2-.5 1-.5 1.4-.3 3.3 1.6 6.8 2.3 10.4 2a7 7 0 0 0 4.8-2.4c1.2-1.6 1.3-3.6 1.3-5.5-1.5 1.6-4 5.3-11.4 3.8-7.5-1.5-9.8-6.7-9.8-13.3 0-6.5 2.3-9.5 6.7-11.6 3-1.5 5.6-1.3 6.8-1.3h7.2c.4 0 .5 0 .7.2l1.8 1.5 6-4 1-.4c.2 0 .6.2.6.7zM240.5 72.4v15.2c0 .5-.3 1-1 1h-8c-.5 0-1-.3-1-.8V73.5c0-1.3-.2-2.8-1.2-3.7-1.7-1.7-4.9-1.2-6 .7-.6 1-.8 2.2-.8 3.4v13.8c0 .4-.3 1-.8 1h-8c-.8 0-1.2-.8-1.2-1.6V61.7c0-.6.4-1 1-1h7.8c.4 0 1 0 1 .6v3.4a14 14 0 0 1 4.6-3.8c1.7-.9 3.6-1 5.6-.7a9 9 0 0 1 5.3 2.6c1.3 1.3 2 3 2.4 4.8.4 1.8.3 3.4.3 4.8zM142 69.5c0 .7-.7 1-1.3 1-2 0-4.2.6-5.6 2.2-1.4 1.7-2 4-2 6.3v8.8c0 .5-.5 1-1 1h-8a1 1 0 0 1-1-1V61.3c0-.6.5-1 1-1h8c.4 0 1 .5 1 1V66c1.7-3.5 4-5.8 6.2-6 2-.1 2.5.5 2.6.8l.1 8.7zM154.9 60.5c1 0 1.3.4 1.3 1.2v26c0 .4-.2 1-.8 1h-8.2c-.6 0-1-.6-1-1V61.4c0-.6.4-1 .8-1l7.9.1z"/><circle cx="151.4" cy="51.4" r="5.6" fill="#fff"/><ellipse cx="176.4" cy="73.1" fill="#223" rx="5.8" ry="5.6"/><ellipse cx="99.2" cy="70.5" fill="#fff" rx="19.7" ry="18.9"/><text x="144.9" y="110.8" fill="#fff" font-family="Tahoma" font-size="14.7" font-weight="400" word-spacing="-.9">Powered by EA</text><text x="239.4" y="60" fill="#fff" font-family="sans-serif" font-size="6" font-weight="700">TM</text><path fill="#fff" d="M206 60.5c1.1 0 1.4.4 1.4 1.2v26c0 .4-.2 1-.8 1h-8.2c-.6 0-1-.6-1-1V61.4c0-.6.4-1 .7-1 .4.1 5.3.2 8 .1z"/><circle cx="202.6" cy="51.4" r="5.6" fill="#fff"/><ellipse cx="99.2" cy="70.5" fill="#223" rx="10.8" ry="10.7"/></svg>