<svg xmlns="http://www.w3.org/2000/svg" viewBox="0 0 256 144"><path fill="#223" d="M0 0h256v144H0z"/><path fill="#fff" d="M246.6 53.4h-1v-2.8l-1.2 1.8h-.6l-.6-1.8v2.8H242v-4.7h1.2l1 2.6 1.2-2.6h1zm-5-4h-1.2v4h-1v-4H238v-.8h3.4zM235.4 67H232V56l-4 7h-2l-3.4-7V67h-4V48.6h4l4.4 10 5-10h3.4zm-21.7 0h-4l-1-3.3h-6.2l-1 3.2h-4l6.6-18.4h3zm-5.5-6.3L206 54l-2.2 6.7zm-16 6.2h-12.3V48.6h12v3h-8.3v4.4h7.3v3.3h-7.3V64h8.4zm-17.8-15.2H170v15h-4V52h-5v-3.2h13.2zm-17.8 9.7c0 3.8-3.3 5.6-6.6 5.6s-5.5-.7-6.6-2.4l2.2-2.2c1 1 2.2 1.6 4.4 1.6s3.3-.7 3.3-2.2c0-1.4-1-2-2.2-2.2l-2-.3c-3.4-.5-5-2.2-5-5.2 0-1.6.5-2.8 1.6-4 1-1 2.8-1.4 4.4-1.4 2.8 0 4.4.7 6.2 2L154 53c-1.2-1-2.3-1.3-4-1.3-1.7 0-2.8.7-2.8 2.3 0 1.3 1 2 2.2 2l2.2.4c2.8.3 5 2.2 5 5.3zm-28.3-3.3c0 5-4.4 9-9.4 9-5.2 0-9-4-9-9s4-9 9-9 9.3 4 9.3 9zM119 41.5c-9 0-16.7 7.4-16.7 16.7l-10.6 15h-1c-2.3 0-4.6.5-6.8 1.6l-47.5-19c-1.2-5.6-6.2-9.8-12.3-9.8-6.8 0-12.5 5.7-12.5 12.6 0 7 5.7 12.5 12.5 12.5 2.4 0 4.6-.5 6.4-1.6l47.8 19c1 6 6 9.8 12.2 9.8 6 0 11.7-5 12.2-11.2l16-11.8c9.5 0 17.3-7.5 17.3-17 0-9-7.7-16.7-17-16.7zm0 5.5c6.5 0 11.6 5 11.6 11.3 0 6.3-5 11.4-11.7 11.4-6.3 0-11.2-5-11.2-11.4 0-6.2 5-11.3 11-11.3zm-95 2.3c3.7 0 6.8 2 8.4 5l-4.6-2c-3.7-1.2-8 .6-9.3 4.3-1.5 3.7.2 8 3.8 9.5l4 1.7-2 .2c-5 0-9.3-4-9.3-9.3 0-5.2 4-9.2 9.2-9.2zm66.6 27.2c5 0 8.8 4.2 8.8 9.3 0 5-4 9-8.8 9-4 0-6.7-1.6-8.4-4.6 1.7 1 2.8 1.4 4.4 2 4 1.7 7.8-.6 9.5-4 1.2-3.5 0-8.2-3.8-9.7l-4-1.6c.6-.2 1.8-.3 2.2-.3z"/></svg>