<svg xmlns="http://www.w3.org/2000/svg" viewBox="0 0 256 144">
	<path fill="#169" d="M0 0h256v144H0z"/>
	<path d="M85.3 84c0 30.7 38.5 49.3 59.4 49.3 22 0 46.5-25.6 46.5-60 0-33-22-52.3-48.1-52.3-26 0-57.8 28.3-57.8 63zm-3.5-35.3c-7.7 0-19-5.2-19-16 0-12.3 8.4-21.3 19.7-21.3 6.4 0 19 3.6 19 17a19.4 19.4 0 0 1-19.7 20.3" fill="#ddd"/>
	<path d="M165.5 101.2H127c-9.2 0-16-6.7-16-16V56.4h12.8v28.2c0 2.2 1.6 4 4 4H149c2.2 0 3.8-1.8 3.8-4l-.3-28.3h12.8" fill="#18d"/>
	<circle cx="112.6" cy="16.3" r="8" fill="#ddd"/>
</svg>