<svg xmlns="http://www.w3.org/2000/svg" preserveAspectRatio="xMidYMid slice" viewBox="0 0 256 144"><path fill="#0f7c10" d="M0 0h256v144H0z"/><path fill="#fff" d="M237.2 93.4l-13.3-18-13.5 18H205l16-22-14.6-19.8h5.5l11.8 16.2 12-16.2h5.4l-14.6 20 16 21.8zm-104 0l-16.2-22 14.7-19.8h-5.5l-12 16.3-12-16.4h-5.5l14.7 20-16 21.8h5.4l13.4-18 13.3 18z"/><path fill="#fff" d="M160.9 71.4c3-1.7 5-4.9 5-8.4 0-2.7-1-11.4-13.6-11.4h-17v18h-5.7l-3 4.2h8.7v19.7h17c9.2 0 15-4.7 15-12.2 0-4.3-2.5-8.3-6.4-9.9zM140 56h12.4c3.3 0 9 .8 9 6.6 0 4.5-3.4 7-9 7H140zm12.4 33H140V74h12.4c4.6 0 10.2 1.2 10.2 7 0 7-6.4 8-10.2 8m37-38.3c-11.8 0-20 9-20 21.8 0 13 8.2 22 20 22s20-9 20-22c0-12.8-8.2-21.8-20-21.8m0 39.3c-9 0-15.2-7.3-15.2-17.5S180.5 55 189.4 55c9 0 15.2 7.3 15.2 17.5 0 10.3-6.3 17.5-15.2 17.5M23.7 47.2a34.5 34.5 0 0 0-3 46.1c-3.1-7.3 18-37 18-37-9.3-10.3-15-9.2-15-9.2M83 71.8c-.2 6.2-.8 12.6-7 21 .4-4.7 0-13-18.4-36.7.7-.9 11-11 15-9A35 35 0 0 1 83 71.7zM48.2 37c10.6.3 14 3 18.3 5.2-6-.9-12.7 1.9-18.3 5-10.4-5.6-14.5-5.4-18.3-5A36.5 36.5 0 0 1 48.2 37m0 28c10.6 8 28.4 27.5 23 33a34.7 34.7 0 0 1-46 0c-5.4-5.6 12.5-25 23-33"/></svg>