<svg xmlns="http://www.w3.org/2000/svg" viewBox="0 0 256 144" preserveAspectRatio="xMidYMid slice"><path fill="#0f7c10" d="M0 0h256v144H0z"/><path fill="#fff" d="M237.2 93.4l-13.3-18-13.5 18H205l16-22-14.6-19.8h5.5l11.8 16.2 12-16.2h5.4l-14.6 20 16 21.8zm-104 0l-16.2-22 14.7-19.8h-5.5l-12 16.3-12-16.4h-5.5l14.7 20-16 21.8h5.4l13.4-18 13.3 18z"/><path fill="#fff" d="M163.7 73a11.7 11.7 0 0 0-2.8-1.6 9.5 9.5 0 0 0 5-8.4c0-2.7-1-11.4-13.6-11.4h-17v18h-5.7l-3 4.2h8.7v19.7h17c9.2 0 15-4.7 15-12.2 0-3.4-1.4-6-3.7-8.2M140 56h12.4c3.3 0 9 .8 9 6.6 0 4.5-3.4 7-9 7H140zm12.4 33H140V74h12.4c4.6 0 10.2 1.2 10.2 7 0 7-6.4 8-10.2 8m37-38.3c-11.8 0-20 9-20 21.8 0 13 8.2 22 20 22s20-9 20-22c0-12.8-8.2-21.8-20-21.8m0 39.3c-9 0-15.2-7.3-15.2-17.5S180.5 55 189.4 55c9 0 15.2 7.3 15.2 17.5 0 10.3-6.3 17.5-15.2 17.5M23.7 47.2A34.7 34.7 0 0 0 13.3 72a34.7 34.7 0 0 0 7.2 21s0 .2.2 0c-2.7-8.3 11-28.2 18-36.6v-.2c-12-11.8-15-9-15-9m49 0A34.7 34.7 0 0 1 83 71.8a34.7 34.7 0 0 1-7 21h-.3c2.7-8.3-11-28.2-18-36.6V56c11.8-11.8 15-9 15-9M48.2 37c7 0 12.8 1.8 18 5 .2 0 .2 0 0 .2-6.7-1.4-17 4.4-18 5-2.6-1.5-12-6.5-18-5H30a.2.2 0 0 1 0-.2c5.3-3 11.2-5 18.2-5m0 28c10.6 8 28.4 27.5 23 33a34.7 34.7 0 0 1-23 8.7 34.7 34.7 0 0 1-23-8.7c-5.4-5.6 12.5-25 23-33"/></svg>