<svg xmlns="http://www.w3.org/2000/svg" viewBox="0 0 256 144" preserveAspectRatio="xMidYMid slice"><path fill="#cd201f" d="M0 0h256v144H0z"></path><path fill="#cd201f" d="M146.8 70.8l-30.5-16v32c10.7-6 22-11.2 30.5-16z"></path><path fill="#96201f" d="M146.8 70.8l-30.5-16L143 73s-4.8 2.8 3.8-2z"></path><path fill="#fff" d="M118.3 111.6c-21.6-.4-29-.7-33.5-1.6-3-.7-5.7-2-7.6-4-1.5-1.5-2.7-3.8-3.7-7-.8-2.7-1-5-1.5-10.3-.7-12.2-1-22.2 0-33.4.7-6 1-13.5 5.6-17.7 2.2-2 4.7-3.3 7.6-3.8 4.4-1 23.3-1.5 42.8-1.5 19.6 0 38.5.6 43 1.5 3.5.6 6.8 2.6 8.8 5.2 4.2 6.6 4.2 14.8 4.7 21.2v23.5c-.7 10.2-1.2 13.8-2.7 17.5-1 2.4-1.8 3.6-3.2 5a15 15 0 0 1-7.8 4c-18.7 1.4-34.5 1.7-52.5 1.4zM147 70.8c-10.5-5.5-20.5-10.6-30.6-16v32c10.7-6 22-11.3 30.5-16z"></path></svg>